<svg width="120" height="48" viewBox="0 0 120 48" fill="none" xmlns="http://www.w3.org/2000/svg">
<path d="M2.65324 38.6239L2.34439 37.7395H0.954604L0.645762 38.6239H0L1.3196 35.0723H2.00747L3.299 38.6239H2.65324ZM1.1371 37.2342H2.1619L1.85305 36.3497L1.64248 35.6478L1.43191 36.3497L1.1371 37.2342Z" fill="#6D8640"/>
<path d="M4.36573 38.1182H6.33109V38.6376H3.8042V35.0859H4.35169L4.36573 38.1182Z" fill="#6D8640"/>
<path d="M9.58805 35.0723H10.4444V38.6239H9.88285V36.799L9.93901 35.6198L9.68632 36.4621L9.01248 38.638H8.40883L7.69288 36.4059L7.45423 35.5917L7.51038 36.799V38.6239H6.96289V35.0723H7.80519L8.57729 37.4588L8.71768 37.9922L8.85806 37.4588L9.58805 35.0723Z" fill="#6D8640"/>
<path d="M13.6029 38.6239L13.2941 37.7395H11.9043L11.5955 38.6239H10.9497L12.2693 35.0723H12.9572L14.2487 38.6239H13.6029ZM12.0868 37.2342H13.1116L12.8028 36.3497L12.5922 35.6478L12.3816 36.3497L12.0868 37.2342Z" fill="#6D8640"/>
<path d="M16.0597 35.0717C16.5932 35.0717 17.0003 35.2261 17.281 35.5209C17.5478 35.8297 17.6881 36.2649 17.6881 36.8405C17.6881 37.402 17.5478 37.8372 17.281 38.146C17.0003 38.4549 16.6072 38.6093 16.0737 38.6093H14.7822V35.0576H16.0597V35.0717ZM16.0036 38.118C16.3826 38.118 16.6493 38.0197 16.8178 37.8232C16.9862 37.6266 17.0705 37.3037 17.0705 36.8686C17.0705 36.4193 16.9862 36.0964 16.8037 35.8999C16.6212 35.7034 16.3405 35.6051 15.9474 35.6051H15.3578V38.132H16.0036V38.118Z" fill="#6D8640"/>
<path d="M18.2778 38.6239V35.0723H18.8815V38.6239H18.2778Z" fill="#6D8640"/>
<path d="M21.8857 35.0723H22.4753V38.6239H21.8435L20.2151 36.0409V38.6239H19.6255V35.0723H20.2432L21.8716 37.6693V35.0723H21.8857Z" fill="#6D8640"/>
<path d="M25.6337 38.6239L25.3249 37.7395H23.9351L23.6262 38.6239H22.9805L24.3001 35.0723H24.9879L26.2795 38.6239H25.6337ZM24.1176 37.2342H25.1424L24.8335 36.3497L24.6229 35.6478L24.4124 36.3497L24.1176 37.2342Z" fill="#6D8640"/>
<path d="M29.0314 35.0723H29.635V38.6239H29.0314V37.0236H27.403V38.6239H26.7993V35.0723H27.403V36.4901H29.0314V35.0723Z" fill="#6D8640"/>
<path d="M34.3515 38.6239L34.0426 37.7395H32.6528L32.344 38.6239H31.6982L33.0178 35.0723H33.7057L34.9972 38.6239H34.3515ZM32.8494 37.2342H33.8742L33.5653 36.3497L33.3548 35.6478L33.1442 36.3497L32.8494 37.2342Z" fill="#6D8640"/>
<path d="M36.0786 38.1182H38.044V38.6376H35.5171V35.0859H36.0646L36.0786 38.1182Z" fill="#6D8640"/>
<path d="M41.2868 35.0723H42.1431V38.6239H41.5816V36.799L41.6377 35.6198L41.385 36.4621L40.7112 38.638H40.1076L39.3916 36.4059L39.153 35.5917L39.2091 36.799V38.6239H38.6616V35.0723H39.5039L40.276 37.4588L40.4164 37.9922L40.5568 37.4588L41.2868 35.0723Z" fill="#6D8640"/>
<path d="M44.2625 38.7222C43.8273 38.7222 43.4904 38.6239 43.2517 38.4134C43.0131 38.2028 42.8867 37.908 42.8867 37.5149V35.0723H43.4904V37.529C43.4904 37.9642 43.7431 38.1888 44.2625 38.1888C44.7678 38.1888 45.0346 37.9642 45.0346 37.529V35.0723H45.6382V37.5149C45.6382 37.894 45.5119 38.2028 45.2732 38.4134C45.0205 38.6239 44.6836 38.7222 44.2625 38.7222Z" fill="#6D8640"/>
<path d="M48.6288 35.0723H49.2184V38.6239H48.5867L46.9583 36.0409V38.6239H46.3687V35.0723H46.9863L48.6148 37.6693V35.0723H48.6288Z" fill="#6D8640"/>
<path d="M52.3769 38.6239L52.068 37.7395H50.6782L50.3694 38.6239H49.7236L51.0432 35.0723H51.7311L53.0226 38.6239H52.3769ZM50.8607 37.2342H51.8855L51.5767 36.3497L51.3661 35.6478L51.1555 36.3497L50.8607 37.2342Z" fill="#6D8640"/>
<path d="M56.8693 35.0723H57.487L56.4762 38.6239H55.9007L55.2128 35.8584L54.539 38.6239H53.9494L52.9526 35.0723H53.5844L54.0757 37.0095L54.2442 37.7676L54.4126 37.0095L54.8899 35.0723H55.5216L55.9989 37.0095L56.1674 37.7676L56.3499 37.0095L56.8693 35.0723Z" fill="#6D8640"/>
<path d="M60.0557 38.6239L59.7469 37.7395H58.3711L58.0623 38.6239H57.4165L58.7361 35.0723H59.424L60.7155 38.6239H60.0557ZM58.5396 37.2342H59.5644L59.2555 36.3497L59.0449 35.6478L58.8344 36.3497L58.5396 37.2342Z" fill="#6D8640"/>
<path d="M64.0003 38.6233H63.3826L63.2843 37.6968C63.2703 37.5143 63.2141 37.3739 63.1299 37.2897C63.0457 37.2055 62.8913 37.1634 62.6947 37.1634H61.8243V38.6093H61.2207V35.0576H62.8772C63.2282 35.0576 63.5089 35.1418 63.6914 35.3103C63.8739 35.4788 63.9722 35.7174 63.9722 36.0122C63.9722 36.2368 63.9161 36.4334 63.8038 36.5737C63.6914 36.7282 63.523 36.8264 63.3264 36.8826C63.6353 36.9528 63.8178 37.1493 63.8599 37.4722L64.0003 38.6233ZM62.6947 36.672C62.9193 36.672 63.0878 36.6159 63.2001 36.5176C63.3124 36.4193 63.3826 36.2789 63.3826 36.1105C63.3826 35.942 63.3264 35.8157 63.2282 35.7315C63.1299 35.6332 62.9755 35.5911 62.779 35.5911H61.8243V36.672H62.6947Z" fill="#6D8640"/>
<path d="M67.1029 38.6239L66.7941 37.7395H65.4043L65.0955 38.6239H64.4497L65.7693 35.0723H66.4572L67.7487 38.6239H67.1029ZM65.5868 37.2342H66.6116L66.3028 36.3497L66.0922 35.6478L65.8816 36.3497L65.5868 37.2342Z" fill="#6D8640"/>
<path d="M70.5002 35.0723H71.1038V38.6239H70.5002V37.0236H68.8717V38.6239H68.2681V35.0723H68.8717V36.4901H70.5002V35.0723Z" fill="#6D8640"/>
<path d="M73.4766 38.2027C73.1677 37.8658 73.0273 37.4025 73.0273 36.841C73.0273 36.2794 73.1818 35.8302 73.4766 35.5073C73.7714 35.1704 74.1644 35.002 74.6558 35.002C75.0629 35.002 75.3998 35.1143 75.6665 35.3248C75.9333 35.5354 76.0877 35.8302 76.1298 36.1952H75.5402C75.4981 35.9846 75.3998 35.8162 75.2454 35.7039C75.091 35.5916 74.9085 35.5214 74.6839 35.5214C74.361 35.5214 74.0943 35.6337 73.9118 35.8723C73.7293 36.111 73.631 36.4339 73.631 36.841C73.631 37.2481 73.7293 37.585 73.9118 37.8236C74.0943 38.0623 74.361 38.1886 74.6839 38.1886C74.9365 38.1886 75.1331 38.1184 75.2875 37.9781C75.4419 37.8377 75.5402 37.6411 75.5683 37.3885H76.1579C76.1158 37.8096 75.9613 38.1325 75.6946 38.3571C75.4279 38.5957 75.0769 38.7081 74.6558 38.7081C74.1644 38.7221 73.7714 38.5536 73.4766 38.2027Z" fill="#6D8640"/>
<path d="M78.923 35.0723H79.5267V38.6239H78.923V37.0236H77.2946V38.6239H76.6909V35.0723H77.2946V36.4901H78.923V35.0723Z" fill="#6D8640"/>
<path d="M82.6855 38.6239L82.3766 37.7395H80.9868L80.678 38.6239H80.0322L81.3518 35.0723H82.0397L83.3312 38.6239H82.6855ZM81.1693 37.2342H82.1941L81.8853 36.3497L81.6747 35.6478L81.4641 36.3497L81.1693 37.2342Z" fill="#6D8640"/>
<path d="M86.5041 35.0723H87.3604V38.6239H86.7989V36.799L86.855 35.6198L86.6023 36.4621L85.9285 38.638H85.3248L84.6089 36.4059L84.3702 35.5917L84.4264 36.799V38.6239H83.8789V35.0723H84.7212L85.4933 37.4588L85.6337 37.9922L85.7741 37.4588L86.5041 35.0723Z" fill="#6D8640"/>
<path d="M90.9117 37.5851C90.9117 37.894 90.8134 38.1466 90.6028 38.3432C90.3922 38.5257 90.1115 38.6239 89.7465 38.6239H88.104V35.0723H89.7324C90.0553 35.0723 90.308 35.1565 90.5046 35.3109C90.6871 35.4653 90.7853 35.6759 90.7853 35.9426C90.7853 36.3217 90.6028 36.5744 90.2378 36.7007C90.687 36.8411 90.9117 37.1359 90.9117 37.5851ZM88.7076 35.5776V36.5042H89.6061C89.7886 36.5042 89.943 36.4621 90.0413 36.3778C90.1396 36.2936 90.1817 36.1813 90.1817 36.0269C90.1817 35.718 89.9992 35.5776 89.6342 35.5776H88.7076ZM89.6623 38.1186C89.8728 38.1186 90.0272 38.0765 90.1396 37.9782C90.2519 37.8799 90.308 37.7395 90.308 37.5711C90.308 37.2061 90.0974 37.0236 89.6763 37.0236H88.6936V38.1186H89.6623Z" fill="#6D8640"/>
<path d="M92.1896 38.1182H94.183V38.6376H91.5859V35.0859H94.1269V35.6054H92.1896V36.5459H93.9584V37.0653H92.1896V38.1182Z" fill="#6D8640"/>
<path d="M97.594 38.6233H96.9764L96.8781 37.6968C96.864 37.5143 96.8079 37.3739 96.7237 37.2897C96.6394 37.2055 96.485 37.1634 96.2885 37.1634H95.4181V38.6093H94.8145V35.0576H96.471C96.8219 35.0576 97.1027 35.1418 97.2852 35.3103C97.4677 35.4788 97.566 35.7174 97.566 36.0122C97.566 36.2368 97.5098 36.4334 97.3975 36.5737C97.2852 36.7282 97.1167 36.8264 96.9202 36.8826C97.229 36.9528 97.4115 37.1493 97.4537 37.4722L97.594 38.6233ZM96.2885 36.672C96.5131 36.672 96.6815 36.6159 96.7939 36.5176C96.9062 36.4193 96.9764 36.2789 96.9764 36.1105C96.9764 35.942 96.9202 35.8157 96.8219 35.7315C96.7237 35.6332 96.5692 35.5911 96.3727 35.5911H95.4181V36.672H96.2885Z" fill="#6D8640"/>
<path d="M94.8996 15.0952C94.7873 15.5023 94.5346 16.3586 94.1134 17.1307C94.1134 17.1307 93.201 18.9276 91.4321 18.9697C91.4321 18.9697 90.7162 18.9697 90.1125 18.5626C90.1125 18.5626 89.8879 18.3801 89.5229 18.3801C89.5229 18.3801 88.7929 18.4082 88.3297 18.7311C88.3297 18.7311 88.2314 18.8013 88.3437 18.9838C88.3437 18.9838 89.0877 20.2472 90.8566 20.542C90.8566 20.542 92.2042 20.7245 93.6923 19.9103C93.6923 19.9103 94.9136 19.2084 97.6511 18.5486C97.6511 18.5486 97.8336 18.5065 97.7494 18.717L97.1036 20.0366L96.5701 20.163C96.5701 20.163 94.1415 20.8087 92.0498 21.9458C92.0498 21.9458 90.4354 22.8583 89.4668 23.2093C89.4668 23.2093 88.456 23.6164 87.5997 23.6725C87.5997 23.6725 87.4733 23.6725 87.5716 23.9393C87.5716 23.9393 88.3156 26.7048 86.9399 29.2879C86.9399 29.2879 86.8837 29.4282 86.7574 29.344C86.6732 29.2879 86.7855 28.9369 86.8276 28.8106C86.8276 28.8106 87.3891 27.2523 85.0587 25.9327C85.0587 25.9327 84.0059 25.315 82.3915 26.045C82.3915 26.045 81.1561 26.6346 79.2188 28.4035C79.2188 28.4035 77.7448 29.695 77.1412 29.8775C77.1412 29.8775 74.9231 30.5794 74.2633 28.3052C74.2633 28.3052 73.6176 26.5083 75.8637 23.7989L76.1164 23.4901C76.1164 23.4901 76.3831 23.6725 75.9058 24.22C73.8843 26.5083 74.9372 27.9823 74.9372 27.9823C75.7654 28.979 77.085 28.5579 77.085 28.5579C77.7027 28.3754 79.1767 27.0979 79.1767 27.0979C81.128 25.3431 82.3774 24.7675 82.3774 24.7675C84.0059 23.9533 84.9324 24.2762 84.9324 24.2762C84.9324 24.2762 86.252 24.6131 86.982 25.7081C86.982 25.7081 87.0382 25.7923 87.1364 25.7502C87.1364 25.7502 87.1926 25.6941 87.0241 25.4835C87.0241 25.4835 86.3643 24.4447 85.7185 23.7568C85.7185 23.7568 83.1215 21.3422 85.2272 18.2117C85.2272 18.2117 85.4237 17.9309 85.508 17.973C85.508 17.973 85.5782 18.0292 85.4378 18.338C85.4378 18.338 84.2024 20.4437 86.5328 21.9599C86.5328 21.9599 87.5435 22.6056 88.9895 21.8756C88.9895 21.8756 87.8103 21.3282 87.3049 20.4437C87.3049 20.4437 87.1645 20.163 87.361 19.6716C87.7962 18.6047 88.3718 17.973 88.3718 17.973C89.0877 17.1026 90.0283 16.864 90.0283 16.864C90.4354 16.7517 90.646 16.9342 90.646 16.9342C91.2637 17.3413 91.9656 17.3553 91.9656 17.3553C93.9309 17.4676 94.5065 15.6426 94.6329 15.0811C94.6329 15.0811 94.7171 14.7442 94.8154 14.7582C94.9557 14.7723 94.8996 15.0952 94.8996 15.0952Z" fill="#193556"/>
<path d="M79.5414 20.6684C79.6958 21.0334 79.7239 21.5528 79.7239 21.5528C79.7239 21.7634 79.6116 21.8617 79.6116 21.8617C78.0534 23.434 76.5513 22.5496 76.5513 22.5496C75.4142 21.8055 75.3019 20.6263 75.3019 20.6263C75.1896 19.8823 74.7684 19.8823 74.7684 19.8823C74.3051 19.8682 73.5471 20.7246 73.5471 20.7246C73.5471 20.7246 73.0979 21.2159 72.6627 22.0582C72.6627 22.0582 72.4661 22.339 72.0309 24.1218C72.0309 24.1218 71.6519 25.9047 70.3744 26.0451C69.7427 26.1293 68.9987 25.273 68.9987 25.273C67.6089 23.5743 68.381 20.1069 68.381 20.1069C68.395 19.9806 68.3529 19.9665 68.3529 19.9665C68.2968 19.9665 68.2406 20.0788 68.2406 20.0788C67.7212 21.2861 67.7212 22.9286 67.7212 22.9286C68.002 27.463 70.3323 27.4349 70.3323 27.4349C71.7783 27.5191 72.2415 25.4836 72.2415 25.4836C72.6907 23.7007 72.8732 23.4199 72.8732 23.4199C73.3084 22.5917 73.7296 22.1705 73.7296 22.1705C74.1648 21.7494 74.5017 21.6932 74.5017 21.6932C74.7544 21.623 74.8948 22.1003 74.8948 22.1003C75.3299 23.3217 75.8774 23.9113 75.8774 23.9113C76.7899 24.9501 77.9832 24.4447 77.9832 24.4447C79.738 23.6445 80.0047 22.2126 80.0047 22.2126C80.9453 17.8046 78.3341 17.5098 78.3341 17.5098C77.4076 17.3133 76.9163 18.5908 76.9163 18.5908C76.2845 20.3034 76.9584 21.0615 76.9584 21.0615C77.534 21.6932 78.3341 21.4405 78.3341 21.4405C79.2185 21.1457 79.2747 20.5982 79.2747 20.5982C79.2747 20.5982 79.5133 20.6263 79.5414 20.6684Z" fill="#193556"/>
<path d="M63.1729 11.095C63.1729 11.095 62.9483 11.6565 63.0746 12.4426C63.0746 12.4426 63.1167 13.2849 65.8121 18.2404C65.8121 18.2404 66.9632 20.2058 65.8963 24.3331C65.8963 24.3331 65.3629 26.9582 61.6146 28.8113C61.6146 28.8113 61.1795 29.0078 59.8739 29.9624C59.8739 29.9624 59.8177 30.0186 59.7756 29.9764C59.7335 29.9343 59.8318 29.8641 59.8318 29.8641C59.8318 29.8641 62.9904 27.3232 64.1415 25.8913C64.1415 25.8913 66.528 23.2521 65.8963 20.9218C65.8963 20.9218 65.3909 18.9143 63.8888 16.7384C63.8888 16.7384 62.5552 14.7028 62.6394 13.0463C62.6394 13.0463 62.5973 12.3724 63.0606 11.0528C63.0606 11.0528 63.1027 10.9265 63.1589 10.9405C63.229 10.9546 63.1729 11.095 63.1729 11.095Z" fill="#193556"/>
<path d="M27.586 11.0246C27.586 11.0246 27.3614 11.5862 27.4877 12.3723C27.4877 12.3723 27.5298 13.2146 30.2252 18.1701C30.2252 18.1701 31.3763 20.1355 30.3094 24.2628C30.3094 24.2628 29.776 26.8879 26.0277 28.741C26.0277 28.741 25.5925 28.9375 24.287 29.8921C24.287 29.8921 24.2308 29.9482 24.1887 29.9061C24.1466 29.864 24.2449 29.7938 24.2449 29.7938C24.2449 29.7938 27.4035 27.2529 28.5546 25.821C28.5546 25.821 30.9411 23.1818 30.3094 20.8514C30.3094 20.8514 29.804 18.844 28.3019 16.668C28.3019 16.668 26.9683 14.6325 27.0525 12.976C27.0525 12.976 27.0104 12.3021 27.4737 10.9825C27.4737 10.9825 27.5158 10.8562 27.5719 10.8702C27.6421 10.8843 27.586 11.0246 27.586 11.0246Z" fill="#193556"/>
<path d="M48.0114 23.4765C47.9412 23.4765 47.9271 23.5466 47.9271 23.5466C47.141 26.1016 47.8289 27.5897 47.8289 27.5897C48.1658 28.3899 48.6431 28.7829 49.0502 29.0216C50.0048 29.555 51.3805 28.5583 51.3805 28.5583C53.4301 27.1685 54.469 24.6416 54.469 24.6416C54.8901 23.4343 54.7216 22.6201 54.7216 22.6201C54.7216 22.6201 54.7076 22.5078 54.7778 22.4938C54.848 22.4797 54.862 22.592 54.862 22.592C55.4095 25.8349 57.403 25.8209 57.403 25.8209C58.3997 25.8489 59.0033 25.1751 59.0033 25.1751C59.9158 24.3328 60.1123 23.308 60.1123 23.308C60.2527 22.7605 60.365 22.6482 60.365 22.6482C60.7722 22.0586 61.1933 21.834 61.1933 21.834C62.0216 21.4128 63.0323 22.1007 63.0323 22.1007C63.1306 22.1709 63.1587 22.1569 63.1587 22.1569C63.2008 22.1709 63.2148 22.0446 63.2148 22.0446C63.6219 19.6721 62.555 19.0123 62.555 19.0123C61.6566 18.2683 60.9546 18.8438 60.9546 18.8438C61.1231 17.2013 60.4773 16.0081 60.4773 16.0081C58.6804 12.4564 58.4699 11.6001 58.4699 11.6001C58.0908 10.5051 58.3997 9.48029 58.3997 9.48029C58.3997 9.48029 58.4418 9.36798 58.3576 9.33991C58.2593 9.29779 58.0768 9.92952 58.0768 9.92952C57.3889 12.3301 59.1858 15.3764 59.1858 15.3764C59.635 16.0923 60.6458 18.3665 60.6458 18.3665C60.8704 18.9281 60.7862 19.0825 60.7862 19.0825C60.6598 19.3632 60.6177 20.739 60.6177 20.739C60.4212 21.0899 60.1404 21.7217 60.1404 21.7217C59.9018 22.5219 59.3122 23.1395 59.3122 23.1395C58.0768 24.5434 56.7993 23.9538 56.7993 23.9538C55.592 23.3361 55.3113 21.7638 55.3113 21.7638C55.1568 21.2724 54.9743 20.8232 54.9743 20.8232C53.6969 17.3698 51.3946 15.5869 51.3946 15.5869C51.2682 15.5589 51.2682 15.6993 51.2682 15.6993L51.1278 16.4994C51.0296 16.9908 51.3103 17.3137 51.3103 17.3137C53.2336 19.7423 54.1461 22.0586 54.1461 22.0586C54.3567 22.5359 54.2303 22.9009 54.2303 22.9009C53.1774 25.7787 51.0577 27.0562 51.0577 27.0562C50.0048 27.7581 49.359 27.4493 49.359 27.4493C48.9519 27.3089 48.5869 26.972 48.5869 26.972C47.8429 26.3543 47.8148 25.1751 47.885 24.3749C47.885 24.3749 48.0254 23.5607 48.0394 23.5326C48.0535 23.5326 48.0535 23.4765 48.0114 23.4765Z" fill="#193556"/>
<path d="M37.9178 22.087C38.8864 24.7122 39.6024 25.2737 39.6024 25.2737C40.6552 26.1301 41.4975 25.9476 41.4975 25.9476C43.505 25.6668 44.3333 23.8699 44.3333 23.8699C44.7685 22.803 44.9229 22.6767 44.9229 22.6767C45.0352 22.5503 45.1615 22.5643 45.1615 22.5643C45.2177 22.5503 45.2458 22.6345 45.2458 22.6345C45.9196 24.6139 47.5761 23.8418 47.5761 23.8418C48.3903 23.4768 48.7834 22.6205 48.7834 22.6205C49.2888 21.5115 48.9378 19.855 48.9378 19.855C48.8255 18.9846 47.7165 17.7352 47.7165 17.7352C46.5092 16.205 46.5373 15.4189 46.5373 15.4189C46.5373 15.4189 46.5373 15.2785 46.4952 15.2785C46.3829 15.2504 46.3407 15.3487 46.3407 15.3487C46.1723 15.8119 46.2144 16.7665 46.2144 16.7665C46.3407 18.0581 47.4077 19.2513 47.4077 19.2513C47.9973 19.883 48.5167 20.7394 48.5167 20.7394C48.7413 21.0482 48.5588 21.3149 48.5588 21.3149C47.913 22.2836 46.9304 22.2415 46.9304 22.2415C46.1583 22.1994 45.7792 21.5396 45.7792 21.5396C45.4844 21.0623 45.5265 20.4025 45.5827 20.0375C45.6108 19.883 45.6248 19.7848 45.6248 19.7848C45.6248 19.7848 45.6669 19.6584 45.6108 19.6163C45.5406 19.5461 45.4563 19.6865 45.4563 19.6865C45.2036 20.0936 44.7404 21.4834 44.7404 21.4834C44.1087 23.0136 43.4067 23.4628 43.4067 23.4628C41.5818 24.8245 40.0235 23.7997 40.0235 23.7997C39.2093 23.2663 38.4653 20.9499 38.4653 20.9499C38.3249 20.4305 38.0862 20.1919 38.0862 20.1919C37.7914 19.9392 37.1738 20.2761 37.1738 20.2761C35.4611 21.329 34.9417 24.4876 34.9417 24.4876C34.7592 25.5966 34.1696 26.1301 34.1696 26.1301C33.7484 26.5793 33.1728 26.6074 33.1728 26.6074C32.5692 26.6495 32.0217 26.116 32.0217 26.116C30.7302 25.021 30.5196 23.182 30.5196 23.182C30.5196 23.182 30.4494 22.9574 30.4073 23.0838C30.3652 23.2101 30.4494 24.0524 30.4494 24.0524C30.5758 26.0599 32.1761 27.4497 32.1761 27.4497C32.9903 28.1656 33.58 28.0393 33.58 28.0393C34.8013 27.7304 35.1803 25.8914 35.1803 25.8914C35.5453 24.3051 35.7418 23.8559 35.7418 23.8559C35.7418 23.8559 36.6684 21.8344 37.5668 21.9045C37.5809 21.8905 37.8616 21.9326 37.9178 22.087Z" fill="#193556"/>
<path d="M43.5612 28.8949L42.4662 28.1228C42.368 28.0526 42.3399 27.9122 42.4101 27.8139L43.0558 26.9155C43.126 26.8172 43.2664 26.7891 43.3647 26.8593L44.4597 27.6314C44.5579 27.7016 44.586 27.842 44.5158 27.9402L43.8701 28.8387C43.7999 28.937 43.6595 28.965 43.5612 28.8949Z" fill="#193556"/>
<path d="M45.569 28.1087L44.474 27.3366C44.3758 27.2664 44.3477 27.126 44.4179 27.0278L45.0637 26.1293C45.1339 26.0311 45.2742 26.003 45.3725 26.0732L46.4675 26.8453C46.5658 26.9155 46.5938 27.0559 46.5236 27.1541L45.8779 28.0526C45.8077 28.1508 45.6673 28.1789 45.569 28.1087Z" fill="#193556"/>
<path d="M42.7189 18.0853L41.624 17.3132C41.5257 17.243 41.4976 17.1026 41.5678 17.0043L42.2136 16.1059C42.2838 16.0076 42.4241 15.9795 42.5224 16.0497L43.6174 16.8218C43.7157 16.892 43.7437 17.0324 43.6735 17.1307L43.0278 18.0291C42.9576 18.1274 42.8172 18.1555 42.7189 18.0853Z" fill="#193556"/>
<path d="M77.3376 16.6956L76.2426 15.9235C76.1443 15.8533 76.1163 15.713 76.1865 15.6147L76.8322 14.7162C76.9024 14.618 77.0428 14.5899 77.1411 14.6601L78.236 15.4322C78.3343 15.5024 78.3624 15.6428 78.2922 15.741L77.6464 16.6395C77.5762 16.7377 77.4359 16.7658 77.3376 16.6956Z" fill="#193556"/>
<path d="M89.6066 15.5452L88.5117 14.7731C88.4134 14.7029 88.3853 14.5626 88.4555 14.4643L89.1013 13.5658C89.1715 13.4676 89.3118 13.4395 89.4101 13.5097L90.5051 14.2818C90.6034 14.352 90.6314 14.4924 90.5612 14.5906L89.9155 15.4891C89.8453 15.6014 89.7049 15.6154 89.6066 15.5452Z" fill="#193556"/>
<path d="M33.5803 19.4613L32.4853 18.6892C32.387 18.619 32.3589 18.4786 32.4291 18.3803L33.0749 17.4819C33.1451 17.3836 33.2855 17.3555 33.3837 17.4257L34.4787 18.1978C34.577 18.268 34.6051 18.4084 34.5349 18.5067L33.8891 19.4051C33.8189 19.5174 33.6785 19.5315 33.5803 19.4613Z" fill="#193556"/>
<path d="M33.0046 16.9622L31.9096 16.1901C31.8113 16.1199 31.7833 15.9796 31.8534 15.8813L32.4992 14.9828C32.5694 14.8846 32.7098 14.8565 32.808 14.9267L33.903 15.6988C34.0013 15.769 34.0294 15.9094 33.9592 16.0076L33.3134 16.9061C33.2432 17.0043 33.1028 17.0324 33.0046 16.9622Z" fill="#193556"/>
<path d="M69.2375 19.4759L68.1425 18.7038C68.0442 18.6336 68.0162 18.4932 68.0864 18.395L68.7321 17.4965C68.8023 17.3982 68.9427 17.3702 69.041 17.4404L70.1359 18.2125C70.2342 18.2827 70.2623 18.423 70.1921 18.5213L69.5463 19.4198C69.4761 19.5321 69.3358 19.5601 69.2375 19.4759Z" fill="#193556"/>
<path d="M68.6618 16.9486L67.5668 16.1765C67.4686 16.1063 67.4405 15.9659 67.5107 15.8676L68.1564 14.9692C68.2266 14.8709 68.367 14.8428 68.4653 14.913L69.5603 15.6851C69.6585 15.7553 69.6866 15.8957 69.6164 15.994L68.9707 16.8924C68.9005 17.0047 68.7601 17.0188 68.6618 16.9486Z" fill="#193556"/>
<path d="M11.4568 21.6801C10.0811 25.5547 11.8359 26.9304 11.8359 26.9304C13.1835 27.9973 14.4751 27.3235 14.4751 27.3235C15.177 27.0006 15.4718 26.776 15.921 26.1724C15.921 26.1724 16.5247 25.4845 16.6089 24.1087L17.1002 23.5191C17.1002 23.5191 17.3529 27.4639 14.3347 29.1625C14.3347 29.1625 12.4957 30.1171 10.9234 27.9412C10.9234 27.9412 9.50551 26.1302 11.2603 21.5818C11.2603 21.5818 11.4568 21.0484 11.6113 20.7676C11.6113 20.7676 11.6674 20.6694 11.7095 20.6974C11.7516 20.7255 11.7376 20.8097 11.7376 20.8097L11.4568 21.6801Z" fill="#193556"/>
<path d="M24.7938 17.9317C24.7938 17.9317 24.864 17.7913 24.6393 17.2859C24.6393 17.2859 23.6426 15.2925 23.2215 14.6748C23.2215 14.6748 21.5088 12.0216 22.0142 9.85967C22.0142 9.85967 22.1546 9.29814 22.2388 9.32621C22.323 9.35429 22.2809 9.45256 22.2809 9.45256C22.2809 9.45256 22.0423 10.3791 22.4213 11.3337C22.4213 11.3337 22.6459 12.0918 24.3867 15.1942C24.3867 15.1942 25.0043 16.233 24.9201 17.7071C24.9201 17.7071 24.892 17.8475 24.8218 17.9457C24.7376 18.058 24.7938 17.9317 24.7938 17.9317Z" fill="#193556"/>
<path d="M15.9212 24.8389C17.9146 24.2072 18.8131 22.6209 18.8131 22.6209C19.5571 21.4136 19.7115 21.3012 19.7115 21.3012C19.8659 21.1188 20.0344 21.1749 20.0344 21.1749C20.0906 21.203 20.0906 21.3574 20.0906 21.3574C20.0484 22.7332 20.4696 23.7299 20.4696 23.7299C20.8907 24.7125 21.6628 24.4599 21.6628 24.4599C22.3648 24.3195 22.8982 22.9999 22.8982 22.9999C23.4738 21.4557 23.7826 21.1328 23.7826 21.1328C24.1476 20.6555 24.6951 20.487 24.6951 20.487C25.762 20.122 26.3236 20.824 26.3236 20.824C26.3236 20.824 26.4218 20.9503 26.5341 20.9503C26.6324 20.9503 26.6745 20.852 26.6745 20.852C27.4185 18.0724 25.748 17.3986 25.748 17.3986C24.8495 16.9634 24.4143 17.4548 24.4143 17.4548C23.9792 17.9882 23.9932 18.9849 23.9932 18.9849C23.8809 19.3499 23.7124 19.6728 23.7124 19.6728C22.3507 22.8735 21.4663 22.691 21.4663 22.691C20.8767 22.677 20.6802 21.9751 20.6802 21.9751C20.4555 21.6522 20.5117 19.5745 20.5117 19.5745C20.4836 19.1674 20.1186 19.4201 20.1186 19.4201C19.8519 19.6026 18.9675 21.0064 18.9675 21.0064C18.0129 22.312 16.96 22.8735 16.96 22.8735C16.3002 21.1328 14.9385 21.1188 14.9385 21.1188C13.9418 21.1468 13.7031 22.6068 13.7031 22.6068C13.3662 23.9545 13.9137 24.5581 14.405 24.8249C14.405 24.8249 14.9806 25.1337 15.9212 24.8389Z" fill="#193556"/>
<path d="M14.9245 21.68C14.9245 21.68 15.1632 20.0796 14.8684 19.6023C14.8684 19.6023 13.9138 18.4512 12.0748 19.1391C12.0748 19.1391 10.8534 19.4339 8.11596 23.0698C8.11596 23.0698 6.59983 25.3721 4.95735 27.0005C4.95735 27.0005 3.31487 28.6851 1.81278 28.0534C1.81278 28.0534 -0.292966 27.169 1.91104 23.9823C1.91104 23.9823 1.9672 23.8981 1.91104 23.8279C1.85489 23.7717 1.67239 24.0525 1.67239 24.0525C-0.882575 28.1376 2.10758 29.2888 2.10758 29.2888C3.67987 30.0328 5.32235 28.3763 5.32235 28.3763C6.96482 26.7478 8.45288 24.4034 8.45288 24.4034C9.22499 23.3786 9.87075 22.6206 10.4182 22.045C10.4182 22.045 11.8221 20.6131 12.889 20.571C13.9559 20.5289 14.728 21.2167 14.7701 21.5817C14.7701 21.5817 14.7841 21.7081 14.8122 21.7081C14.8403 21.7081 14.9105 21.7502 14.9245 21.68Z" fill="#193556"/>
<path d="M2.8237 18.3386C3.1185 18.6194 3.44138 19.0124 3.82042 19.4476C3.82042 19.4476 4.24156 19.9109 4.53637 20.5566C4.53637 20.5566 4.55041 20.6128 4.52233 20.6409C4.52233 20.6409 3.39927 22.0166 1.99544 22.1851C1.99544 22.1851 1.34968 22.3255 1.57429 21.3849C1.57429 21.3849 1.91121 20.0653 4.19945 17.749C4.19945 17.749 5.88404 15.91 8.11613 11.6844C8.20036 11.53 8.11613 11.502 8.11613 11.502C8.11613 11.502 5.74366 14.8711 3.666 17.0611C3.666 17.0611 1.71467 18.9844 1.11103 21.1884C1.11103 21.1884 0.661804 22.901 1.34968 23.8416C1.34968 23.8416 1.84102 24.4874 3.58176 23.266C3.58176 23.266 5.0979 22.3395 5.22424 20.6549C5.32251 19.4476 4.32579 18.2824 4.32579 18.2824C2.76755 16.4013 2.14986 15.7836 2.14986 15.7836C0.114311 13.6779 0.296809 11.9091 0.296809 11.9091C0.296809 11.7968 0.212578 11.8248 0.212578 11.8248C0.142387 11.8529 0.0721957 11.9652 0.0441191 12.26C-0.194532 15.2783 1.57429 17.033 1.57429 17.033C1.57429 17.033 2.30428 17.8613 2.8237 18.3386Z" fill="#193556"/>
<path d="M19.7258 17.9456L18.6308 17.1735C18.5325 17.1033 18.5044 16.963 18.5746 16.8647L19.2204 15.9662C19.2906 15.868 19.431 15.8399 19.5292 15.9101L20.6242 16.6822C20.7225 16.7524 20.7506 16.8928 20.6804 16.991L20.0346 17.8895C19.9644 18.0018 19.824 18.0158 19.7258 17.9456Z" fill="#193556"/>
<path d="M9.73066 14.8011L8.63567 14.029C8.5374 13.9588 8.50933 13.8184 8.57952 13.7202L9.22528 12.8217C9.29547 12.7234 9.43585 12.6954 9.53412 12.7656L10.6291 13.5377C10.7274 13.6078 10.7555 13.7482 10.6853 13.8465L10.0395 14.7449C9.96931 14.8432 9.84296 14.8713 9.73066 14.8011Z" fill="#193556"/>
<path d="M9.16913 12.4144L8.07415 11.6423C7.97588 11.5721 7.9478 11.4317 8.01799 11.3334L8.66375 10.435C8.73395 10.3367 8.87433 10.3086 8.9726 10.3788L10.0676 11.1509C10.1659 11.2211 10.1939 11.3615 10.1237 11.4598L9.47798 12.3582C9.40778 12.4565 9.2674 12.4846 9.16913 12.4144Z" fill="#193556"/>
<path d="M11.4568 21.6801C10.0811 25.5547 11.8359 26.9304 11.8359 26.9304C13.1835 27.9973 14.4751 27.3235 14.4751 27.3235C15.177 27.0006 15.4718 26.776 15.921 26.1724C15.921 26.1724 16.5247 25.4845 16.6089 24.1087L17.1002 23.5191C17.1002 23.5191 17.3529 27.4639 14.3347 29.1625C14.3347 29.1625 12.4957 30.1171 10.9234 27.9412C10.9234 27.9412 9.50551 26.1302 11.2603 21.5818C11.2603 21.5818 11.4568 21.0484 11.6113 20.7676C11.6113 20.7676 11.6674 20.6694 11.7095 20.6974C11.7516 20.7255 11.7376 20.8097 11.7376 20.8097L11.4568 21.6801Z" fill="#193556"/>
<path d="M24.7938 17.9317C24.7938 17.9317 24.864 17.7913 24.6393 17.2859C24.6393 17.2859 23.6426 15.2925 23.2215 14.6748C23.2215 14.6748 21.5088 12.0216 22.0142 9.85967C22.0142 9.85967 22.1546 9.29814 22.2388 9.32621C22.323 9.35429 22.2809 9.45256 22.2809 9.45256C22.2809 9.45256 22.0423 10.3791 22.4213 11.3337C22.4213 11.3337 22.6459 12.0918 24.3867 15.1942C24.3867 15.1942 25.0043 16.233 24.9201 17.7071C24.9201 17.7071 24.892 17.8475 24.8218 17.9457C24.7376 18.058 24.7938 17.9317 24.7938 17.9317Z" fill="#193556"/>
<path d="M15.9212 24.8389C17.9146 24.2072 18.8131 22.6209 18.8131 22.6209C19.5571 21.4136 19.7115 21.3012 19.7115 21.3012C19.8659 21.1188 20.0344 21.1749 20.0344 21.1749C20.0906 21.203 20.0906 21.3574 20.0906 21.3574C20.0484 22.7332 20.4696 23.7299 20.4696 23.7299C20.8907 24.7125 21.6628 24.4599 21.6628 24.4599C22.3648 24.3195 22.8982 22.9999 22.8982 22.9999C23.4738 21.4557 23.7826 21.1328 23.7826 21.1328C24.1476 20.6555 24.6951 20.487 24.6951 20.487C25.762 20.122 26.3236 20.824 26.3236 20.824C26.3236 20.824 26.4218 20.9503 26.5341 20.9503C26.6324 20.9503 26.6745 20.852 26.6745 20.852C27.4185 18.0724 25.748 17.3986 25.748 17.3986C24.8495 16.9634 24.4143 17.4548 24.4143 17.4548C23.9792 17.9882 23.9932 18.9849 23.9932 18.9849C23.8809 19.3499 23.7124 19.6728 23.7124 19.6728C22.3507 22.8735 21.4663 22.691 21.4663 22.691C20.8767 22.677 20.6802 21.9751 20.6802 21.9751C20.4555 21.6522 20.5117 19.5745 20.5117 19.5745C20.4836 19.1674 20.1186 19.4201 20.1186 19.4201C19.8519 19.6026 18.9675 21.0064 18.9675 21.0064C18.0129 22.312 16.96 22.8735 16.96 22.8735C16.3002 21.1328 14.9385 21.1188 14.9385 21.1188C13.9418 21.1468 13.7031 22.6068 13.7031 22.6068C13.3662 23.9545 13.9137 24.5581 14.405 24.8249C14.405 24.8249 14.9806 25.1337 15.9212 24.8389Z" fill="#193556"/>
<path d="M14.9245 21.68C14.9245 21.68 15.1632 20.0796 14.8684 19.6023C14.8684 19.6023 13.9138 18.4512 12.0748 19.1391C12.0748 19.1391 10.8534 19.4339 8.11596 23.0698C8.11596 23.0698 6.59983 25.3721 4.95735 27.0005C4.95735 27.0005 3.31487 28.6851 1.81278 28.0534C1.81278 28.0534 -0.292966 27.169 1.91104 23.9823C1.91104 23.9823 1.9672 23.8981 1.91104 23.8279C1.85489 23.7717 1.67239 24.0525 1.67239 24.0525C-0.882575 28.1376 2.10758 29.2888 2.10758 29.2888C3.67987 30.0328 5.32235 28.3763 5.32235 28.3763C6.96482 26.7478 8.45288 24.4034 8.45288 24.4034C9.22499 23.3786 9.87075 22.6206 10.4182 22.045C10.4182 22.045 11.8221 20.6131 12.889 20.571C13.9559 20.5289 14.728 21.2167 14.7701 21.5817C14.7701 21.5817 14.7841 21.7081 14.8122 21.7081C14.8403 21.7081 14.9105 21.7502 14.9245 21.68Z" fill="#193556"/>
<path d="M2.8237 18.3386C3.1185 18.6194 3.44138 19.0124 3.82042 19.4476C3.82042 19.4476 4.24156 19.9109 4.53637 20.5566C4.53637 20.5566 4.55041 20.6128 4.52233 20.6409C4.52233 20.6409 3.39927 22.0166 1.99544 22.1851C1.99544 22.1851 1.34968 22.3255 1.57429 21.3849C1.57429 21.3849 1.91121 20.0653 4.19945 17.749C4.19945 17.749 5.88404 15.91 8.11613 11.6844C8.20036 11.53 8.11613 11.502 8.11613 11.502C8.11613 11.502 5.74366 14.8711 3.666 17.0611C3.666 17.0611 1.71467 18.9844 1.11103 21.1884C1.11103 21.1884 0.661804 22.901 1.34968 23.8416C1.34968 23.8416 1.84102 24.4874 3.58176 23.266C3.58176 23.266 5.0979 22.3395 5.22424 20.6549C5.32251 19.4476 4.32579 18.2824 4.32579 18.2824C2.76755 16.4013 2.14986 15.7836 2.14986 15.7836C0.114311 13.6779 0.296809 11.9091 0.296809 11.9091C0.296809 11.7968 0.212578 11.8248 0.212578 11.8248C0.142387 11.8529 0.0721957 11.9652 0.0441191 12.26C-0.194532 15.2783 1.57429 17.033 1.57429 17.033C1.57429 17.033 2.30428 17.8613 2.8237 18.3386Z" fill="#193556"/>
<path d="M19.7258 17.9456L18.6308 17.1735C18.5325 17.1033 18.5044 16.963 18.5746 16.8647L19.2204 15.9662C19.2906 15.868 19.431 15.8399 19.5292 15.9101L20.6242 16.6822C20.7225 16.7524 20.7506 16.8928 20.6804 16.991L20.0346 17.8895C19.9644 18.0018 19.824 18.0158 19.7258 17.9456Z" fill="#193556"/>
<path d="M9.73066 14.8011L8.63567 14.029C8.5374 13.9588 8.50933 13.8184 8.57952 13.7202L9.22528 12.8217C9.29547 12.7234 9.43585 12.6954 9.53412 12.7656L10.6291 13.5377C10.7274 13.6078 10.7555 13.7482 10.6853 13.8465L10.0395 14.7449C9.96931 14.8432 9.84296 14.8713 9.73066 14.8011Z" fill="#193556"/>
<path d="M9.16913 12.4144L8.07415 11.6423C7.97588 11.5721 7.9478 11.4317 8.01799 11.3334L8.66375 10.435C8.73395 10.3367 8.87433 10.3086 8.9726 10.3788L10.0676 11.1509C10.1659 11.2211 10.1939 11.3615 10.1237 11.4598L9.47798 12.3582C9.40778 12.4565 9.2674 12.4846 9.16913 12.4144Z" fill="#193556"/>
<path d="M117.475 43.0731C119.979 40.231 119.816 37.191 119.77 35.2807C119.735 34.0111 119.409 32.9162 118.943 32.0194C118.523 31.2157 117.58 30.0625 116.369 29.0375C115.39 28.1989 114.552 27.5466 113.736 26.9759C112.536 26.1256 111.651 25.5316 110.731 24.9608C109.904 24.4367 108.413 23.4932 107.656 22.8759C107.377 22.6546 106.619 21.9674 106.375 21.7577C104.197 19.7659 103.859 18.6128 103.742 18.0537C103.742 18.0304 103.742 18.0071 103.754 17.9838C103.964 17.7159 105.688 15.6077 107.773 15.5145C107.773 15.5145 112.816 14.9088 118.302 21.5131C118.337 21.5597 118.442 21.385 118.442 21.385C121.272 15.9105 118.29 10.7156 118.29 10.7156C116.811 8.16478 115.25 7.41932 115.25 7.41932C115.25 7.41932 114.435 6.98836 114.004 7.01165C112.385 7.08154 111.313 8.52586 111.267 8.59575C111.267 8.59575 111.267 8.59575 111.267 8.60739C110.486 9.44603 109.776 11.4727 109.648 11.8222C109.636 11.8571 109.613 11.8804 109.578 11.8804C107.889 11.9154 105.781 12.4977 104.115 15.0952C103.009 16.8191 102.671 18.4148 102.741 19.731C102.776 20.523 103.148 22.3168 104.767 23.9824C105.222 24.46 105.909 25.0424 106.48 25.4733C107.644 26.3469 108.436 26.9177 109.776 27.6864C110.591 28.1523 111.407 28.5716 112.222 29.0259C112.979 29.4336 113.806 29.981 114.284 30.2838C115.611 31.1108 116.404 32.0543 116.73 32.4387C117.091 32.8696 117.51 33.3705 117.79 33.8015C119.374 36.2708 119.013 37.9364 119.013 37.9364C118.593 41.8035 108.786 47.7089 108.786 47.7089C108.565 47.837 108.53 47.8952 108.541 47.9302C108.553 47.9535 108.611 47.9302 108.681 47.9185C108.774 47.8952 108.867 47.8603 108.949 47.8137C109.857 47.3711 116.683 43.97 117.475 43.0731ZM117.988 16.2134L117.953 16.1784L117.65 15.8756C115.903 14.3381 114.19 13.1966 112.571 12.4861C112.082 12.2764 111.616 12.1833 111.092 12.1134C111.034 12.1017 110.999 12.0318 111.046 11.9852C111.104 11.9154 111.15 11.8571 111.197 11.7989C111.197 11.7989 111.209 11.7872 111.22 11.7872C111.418 11.5543 111.605 11.3679 111.838 11.1815C112.094 10.9719 112.513 10.7156 112.734 10.5759C113.13 10.308 113.41 10.0517 113.736 9.71393C113.748 9.70228 113.759 9.67899 113.783 9.66734L113.818 9.6324V9.51592C113.794 9.50427 113.783 9.46933 113.783 9.44603C113.783 9.41109 113.806 9.38779 113.841 9.3645V9.17814C113.841 9.15484 113.829 9.13154 113.818 9.1199C113.794 9.10825 113.783 9.08495 113.783 9.06166C113.783 9.02671 113.806 8.99177 113.853 8.98012V8.89859C113.841 8.88694 113.829 8.87529 113.829 8.86364C113.829 8.852 113.841 8.84035 113.864 8.8287V8.78211C113.829 8.77046 113.794 8.73552 113.794 8.71223C113.794 8.68893 113.806 8.66563 113.841 8.64234C113.864 8.63069 113.876 8.6074 113.876 8.5841L113.899 8.28126L113.923 8.5841C113.923 8.6074 113.946 8.63069 113.957 8.64234C113.981 8.65399 114.004 8.67728 114.004 8.70058C114.004 8.73552 113.981 8.75882 113.934 8.77046V8.81705C113.957 8.8287 113.969 8.84035 113.969 8.852C113.969 8.86365 113.957 8.87529 113.946 8.88694V8.95683C113.992 8.96847 114.027 9.00342 114.027 9.05001C114.027 9.0733 114.016 9.0966 113.992 9.10825C113.981 9.1199 113.969 9.14319 113.969 9.16649V9.35285C114.004 9.3645 114.027 9.39944 114.027 9.43439C114.027 9.45768 114.016 9.48098 113.992 9.50427V9.62075L114.027 9.65569C114.039 9.66734 114.062 9.69064 114.074 9.70228C114.423 10.0401 114.796 10.3546 115.215 10.6225C115.437 10.7622 115.681 10.9253 115.926 11.0767C116.334 11.3446 116.753 11.7057 117.091 12.1833C117.382 12.5909 117.638 13.1151 117.65 13.4296C117.661 13.7091 117.685 13.9421 117.743 14.0702C117.778 14.1401 117.825 14.175 117.859 14.1983C117.883 14.21 117.894 14.2449 117.894 14.2682L117.859 14.7691C117.859 14.804 117.871 14.8389 117.906 14.8506L117.964 14.8739C117.988 14.8855 118.011 14.9088 118.011 14.9438C118.023 15.1534 118.011 15.3747 118.011 15.6193C118.011 15.8756 117.999 16.0387 117.988 16.2134Z" fill="#6D8640"/>
<mask id="mask0_2728_2275" style="mask-type:luminance" maskUnits="userSpaceOnUse" x="102" y="7" width="18" height="41">
<path d="M117.475 43.0731C119.979 40.231 119.816 37.191 119.77 35.2807C119.735 34.0111 119.409 32.9162 118.943 32.0194C118.523 31.2157 117.58 30.0625 116.369 29.0375C115.39 28.1989 114.552 27.5466 113.736 26.9759C112.536 26.1256 111.651 25.5316 110.731 24.9608C109.904 24.4367 108.413 23.4932 107.656 22.8759C107.377 22.6546 106.619 21.9674 106.375 21.7577C104.15 19.731 103.847 18.5546 103.742 18.0188C103.742 18.0188 105.559 15.6193 107.784 15.5145C107.784 15.5145 112.828 14.9088 118.314 21.5131C118.349 21.5597 118.454 21.385 118.454 21.385C121.284 15.9105 118.302 10.7156 118.302 10.7156C116.823 8.16478 115.262 7.41932 115.262 7.41932C115.262 7.41932 114.447 6.98836 114.016 7.01165C112.35 7.08154 111.279 8.59575 111.279 8.59575C110.417 9.51592 109.636 11.8688 109.636 11.8688C107.947 11.8921 105.792 12.4628 104.115 15.0835C103.009 16.8074 102.671 18.4032 102.741 19.7193C102.776 20.5114 103.148 22.3051 104.767 23.9708C105.222 24.4483 105.909 25.0307 106.48 25.4617C107.644 26.3353 108.436 26.906 109.776 27.6748C110.591 28.1407 111.407 28.56 112.222 29.0142C112.979 29.4219 113.806 29.9694 114.284 30.2722C115.611 31.0992 116.404 32.0427 116.73 32.427C117.091 32.858 117.51 33.3589 117.79 33.7898C119.374 36.2591 119.013 37.9248 119.013 37.9248C118.593 41.7918 108.786 47.6972 108.786 47.6972C108.565 47.8254 108.53 47.8836 108.541 47.9185C108.553 47.9418 108.611 47.9185 108.681 47.9069C108.774 47.8836 108.867 47.8487 108.949 47.8021C109.857 47.3711 116.683 43.97 117.475 43.0731ZM117.964 16.1784C117.964 16.1901 117.964 16.1901 117.964 16.1784C117.953 16.1784 117.953 16.1784 117.953 16.1784L117.65 15.8639C115.903 14.3148 114.19 13.1733 112.56 12.4744C112.024 12.2415 111.511 12.16 110.941 12.0784C111.022 11.9736 111.104 11.8688 111.185 11.7756C111.185 11.7756 111.197 11.7639 111.209 11.7639C111.407 11.531 111.593 11.3446 111.826 11.1583C112.082 10.9486 112.502 10.6923 112.723 10.5526C113.119 10.2847 113.398 10.0284 113.725 9.69064C113.736 9.67899 113.748 9.65569 113.771 9.64405L113.806 9.6091V9.49262C113.783 9.48098 113.771 9.44603 113.771 9.42274C113.771 9.38779 113.794 9.3645 113.829 9.3412V9.1199C113.794 9.10825 113.771 9.0733 113.771 9.03836C113.771 9.00342 113.794 8.96847 113.841 8.95683V8.87529C113.829 8.86365 113.818 8.852 113.818 8.84035C113.818 8.8287 113.829 8.81705 113.853 8.80541V8.75882C113.818 8.74717 113.783 8.71222 113.783 8.68893C113.783 8.65399 113.818 8.61904 113.864 8.60739L113.888 8.25796L113.923 8.60739C113.969 8.61904 114.004 8.64234 114.004 8.68893C114.004 8.72387 113.981 8.74717 113.934 8.75882V8.80541C113.957 8.81705 113.969 8.8287 113.969 8.84035C113.969 8.852 113.957 8.86365 113.946 8.87529V8.94518C113.992 8.95683 114.027 8.99177 114.027 9.03836C114.027 9.0733 114.004 9.0966 113.969 9.1199V9.3412C114.004 9.35285 114.027 9.38779 114.027 9.42274C114.027 9.44603 114.016 9.46933 113.992 9.49262V9.6091L114.027 9.64405C114.039 9.65569 114.062 9.67899 114.074 9.69064C114.423 10.0284 114.796 10.3429 115.215 10.6108C115.437 10.7506 115.681 10.9136 115.926 11.0651C116.334 11.333 116.753 11.694 117.091 12.1716C117.382 12.5793 117.638 13.1034 117.65 13.4179C117.661 13.6975 117.685 13.9304 117.743 14.0585C117.79 14.175 117.894 14.21 117.894 14.21L117.859 14.8156L118.011 14.8855V15.6077C118.023 15.8523 118.023 16.0037 117.953 16.1551C117.964 16.1784 117.964 16.1784 117.964 16.1784Z" fill="white"/>
</mask>
<g mask="url(#mask0_2728_2275)">
<path d="M118.267 28.5943L118.057 28.3847L117.708 28.7341L117.37 28.3963L117.719 28.0469L117.51 27.8372L117.16 28.1867L116.822 27.8489L117.172 27.4995L116.962 27.2898L116.613 27.6392L116.275 27.3014L116.624 26.952L116.415 26.7424L116.065 27.0918L115.716 26.7424L116.065 26.3929L115.856 26.1833L115.506 26.5327L115.168 26.1949L115.518 25.8455L115.308 25.6358L114.959 25.9853L114.621 25.6475L114.97 25.298L114.761 25.0884L114.411 25.4378L114.074 25.1L114.423 24.7506L114.213 24.5409L113.864 24.8904L113.538 24.5642L113.887 24.2148L113.678 24.0051L113.328 24.3546L112.99 24.0168L113.34 23.6673L113.13 23.4577L112.781 23.8071L112.443 23.4693L112.792 23.1199L112.583 22.9102L112.233 23.2597L111.895 22.9219L112.245 22.5725L112.035 22.3628L111.686 22.7122L111.336 22.3628L111.686 22.0134L111.476 21.8037L111.127 22.1531L110.789 21.8154L111.138 21.4659L110.929 21.2563L110.579 21.6057L110.241 21.2679L110.591 20.9185L110.381 20.7088L110.032 21.0583L109.694 20.7205L110.043 20.371L109.834 20.1614L109.484 20.5108L109.147 20.173L109.496 19.8236L109.286 19.6139L108.937 19.9634L108.599 19.6256L108.949 19.2761L108.739 19.0665L108.389 19.4159L108.052 19.0781L108.401 18.7287L108.191 18.519L107.842 18.8685L107.504 18.5307L107.854 18.1813L107.644 17.9716L107.295 18.321L106.945 17.9716L107.295 17.6222L107.085 17.4125L106.735 17.7619L106.398 17.4242L106.747 17.0747L106.537 16.8651L106.188 17.2145L105.85 16.8767L106.2 16.5273L105.99 16.3176L105.641 16.6671L105.303 16.3293L105.652 15.9798L105.443 15.7702L105.093 16.1196L104.767 15.7935L105.116 15.444L104.907 15.2344L104.557 15.5838L104.22 15.246L104.569 14.8966L104.359 14.6869L104.01 15.0364L103.672 14.6986L104.022 14.3492L103.812 14.1395L103.462 14.4889L103.125 14.1511L103.474 13.8017L103.264 13.592L102.915 13.9415L102.566 13.592L102.915 13.2426L102.705 13.033L102.356 13.3824L102.018 13.0446L102.368 12.6952L102.158 12.4855L101.808 12.8349L101.471 12.4972L101.82 12.1477L101.61 11.9381L101.261 12.2875L100.923 11.9497L101.273 11.6003L101.063 11.3906L100.714 11.7401L100.702 11.7284L100.492 11.9381L100.504 11.9497L100.166 12.2875L99.9565 12.4972L99.6187 12.8349L99.409 13.0446L99.0596 13.394L99.048 13.3824L98.8383 13.592L98.8499 13.6037L98.5122 13.9415L98.5005 13.9298L98.2908 14.1395L98.3025 14.1511L97.9647 14.4889L97.9531 14.4773L97.7434 14.6869L97.755 14.6986L97.4173 15.0364L97.4056 15.0247L97.196 15.2344L97.2076 15.246L96.8815 15.5722L96.8698 15.5605L96.6602 15.7702L96.6718 15.7818L96.334 16.1196L96.3224 16.108L96.1127 16.3176L96.1244 16.3293L95.7866 16.6671L95.7749 16.6554L95.5653 16.8651L95.5769 16.8767L95.2391 17.2145L95.2275 17.2028L95.0178 17.4125L95.0295 17.4242L94.68 17.7736L94.6684 17.7619L94.4587 17.9716L94.4704 17.9832L94.1326 18.321L94.121 18.3094L93.9113 18.519L93.9229 18.5307L93.5852 18.8685L93.5735 18.8568L93.3639 19.0665L93.3755 19.0781L93.0377 19.4159L93.0261 19.4043L92.8164 19.6139L92.8281 19.6256L93.0377 19.8352L93.3755 20.173L93.5852 20.3827L93.9229 20.7205L94.1326 20.9301L94.4704 21.2679L94.68 21.4776L95.0295 21.827L95.2391 22.0367L95.5769 22.3744L95.7866 22.5841L96.1244 22.9219L96.334 23.1316L96.6718 23.4693L96.8815 23.679L97.2076 24.0051L97.4173 24.2148L97.755 24.5526L97.9647 24.7622L98.3025 25.1L98.5122 25.3097L98.8499 25.6475L99.0596 25.8571L99.409 26.2066L99.6187 26.4162L99.9565 26.754L100.166 26.9637L100.504 27.3014L100.714 27.5111L101.051 27.8489L101.261 28.0586L101.599 28.3963L101.808 28.606L102.146 28.9438L102.356 29.1534L102.694 29.4912L102.903 29.7009L103.241 30.0387L103.451 30.2483L103.8 30.5978L104.01 30.8074L104.348 31.1452L104.557 31.3549L104.895 31.6926L105.105 31.9023L105.443 32.2401L105.652 32.4497L105.978 32.7759L106.188 32.9855L106.526 33.3233L106.735 33.533L107.073 33.8708L107.283 34.0804L107.621 34.4182L107.83 34.6279L108.18 34.9773L108.389 35.187L108.727 35.5248L108.937 35.7344L109.275 36.0722L109.38 36.177L110.265 37.0623L110.474 36.8526L110.23 36.608L110.568 36.2702L110.812 36.5148L111.022 36.3052L110.777 36.0606L111.115 35.7228L111.36 35.9674L111.569 35.7577L111.325 35.5131L111.662 35.1753L111.907 35.4199L112.117 35.2103L111.872 34.9657L112.222 34.6162L112.466 34.8608L112.676 34.6512L112.431 34.4066L112.769 34.0688L113.014 34.3134L113.223 34.1037L112.979 33.8591L113.316 33.5213L113.561 33.7659L113.771 33.5563L113.526 33.3117L113.864 32.9739L114.108 33.2185L114.318 33.0088L114.074 32.7642L114.4 32.4381L114.644 32.6827L114.854 32.473L114.609 32.2284L114.947 31.8907L115.192 32.1353L115.401 31.9256L115.157 31.681L115.495 31.3432L115.739 31.5878L115.949 31.3782L115.704 31.1336L116.042 30.7958L116.287 31.0404L116.496 30.8307L116.252 30.5861L116.601 30.2367L116.846 30.4813L117.055 30.2716L116.811 30.027L117.149 29.6892L117.393 29.9338L117.603 29.7242L117.358 29.4796L117.696 29.1418L117.941 29.3864L118.15 29.1767L117.906 28.9321L118.267 28.5943ZM116.974 28.3963L116.636 28.7341L116.298 28.3963L116.636 28.0586L116.974 28.3963ZM109.624 28.1867L109.286 27.8489L109.612 27.5228L109.95 27.8605L109.624 28.1867ZM110.148 28.0702L110.474 28.3963L110.148 28.7225L109.822 28.3963L110.148 28.0702ZM109.077 27.6509L108.739 27.3131L109.065 26.987L109.403 27.3247L109.077 27.6509ZM108.541 27.1151L108.203 26.7773L108.529 26.4512L108.867 26.7889L108.541 27.1151ZM108.005 26.5793L107.656 26.2299L107.982 25.9037L108.331 26.2532L108.005 26.5793ZM107.446 26.0202L107.108 25.6824L107.434 25.3563L107.772 25.6941L107.446 26.0202ZM106.91 25.4844L106.572 25.1466L106.899 24.8205L107.236 25.1583L106.91 25.4844ZM106.374 24.9486L106.037 24.6108L106.363 24.2847L106.701 24.6225L106.374 24.9486ZM105.839 24.4128L105.501 24.075L105.827 23.7489L106.165 24.0867L105.839 24.4128ZM105.291 23.8654L104.953 23.5276L105.279 23.2014L105.617 23.5392L105.291 23.8654ZM104.755 23.3296L104.418 22.9918L104.744 22.6656L105.081 23.0034L104.755 23.3296ZM104.22 22.7938L103.882 22.456L104.208 22.1298L104.546 22.4676L104.22 22.7938ZM103.672 22.2463L103.323 21.8969L103.649 21.5708L103.998 21.9202L103.672 22.2463ZM103.125 21.6989L102.787 21.3611L103.113 21.035L103.451 21.3727L103.125 21.6989ZM102.589 21.1631L102.251 20.8253L102.577 20.4992L102.915 20.8369L102.589 21.1631ZM102.041 20.6156L101.704 20.2779L102.03 19.9517L102.368 20.2895L102.041 20.6156ZM101.506 20.0798L101.179 19.7537L101.506 19.4276L101.832 19.7537L101.506 20.0798ZM100.981 19.5557L100.644 19.2179L100.97 18.8918L101.308 19.2296L100.981 19.5557ZM100.772 19.7537L100.434 20.0915L100.096 19.7537L100.434 19.4159L100.772 19.7537ZM100.981 19.9634L101.308 20.2895L100.97 20.6273L100.644 20.3012L100.981 19.9634ZM101.506 20.4992L101.843 20.8369L101.506 21.1747L101.168 20.8369L101.506 20.4992ZM102.041 21.035L102.379 21.3727L102.041 21.7105L101.704 21.3727L102.041 21.035ZM102.589 21.5708L102.927 21.9085L102.589 22.2463L102.251 21.9085L102.589 21.5708ZM103.125 22.1066L103.474 22.456L103.136 22.7938L102.787 22.4443L103.125 22.1066ZM103.672 22.6656L104.01 23.0034L103.672 23.3412L103.334 23.0034L103.672 22.6656ZM104.22 23.2014L104.557 23.5392L104.22 23.877L103.882 23.5392L104.22 23.2014ZM104.755 23.7372L105.093 24.075L104.755 24.4128L104.418 24.075L104.755 23.7372ZM105.291 24.2847L105.629 24.6225L105.291 24.9602L104.953 24.6225L105.291 24.2847ZM105.839 24.8205L106.176 25.1583L105.839 25.496L105.501 25.1583L105.839 24.8205ZM106.374 25.3563L106.712 25.6941L106.374 26.0318L106.037 25.6941L106.374 25.3563ZM106.91 25.8921L107.248 26.2299L106.91 26.5676L106.572 26.2299L106.91 25.8921ZM107.446 26.4395L107.795 26.7889L107.458 27.1267L107.108 26.7773L107.446 26.4395ZM108.005 26.987L108.343 27.3247L108.005 27.6625L107.667 27.3247L108.005 26.987ZM108.541 27.5228L108.879 27.8605L108.541 28.1983L108.203 27.8605L108.541 27.5228ZM109.077 28.0702L109.414 28.408L109.077 28.7458L108.739 28.408L109.077 28.0702ZM109.624 28.606L109.95 28.9321L109.612 29.2699L109.286 28.9438L109.624 28.606ZM110.148 29.1418L110.486 29.4796L110.148 29.8174L109.81 29.4796L110.148 29.1418ZM110.358 28.9321L110.684 28.606L111.022 28.9438L110.696 29.2699L110.358 28.9321ZM110.894 28.3963L111.231 28.0586L111.569 28.3963L111.231 28.7341L110.894 28.3963ZM110.684 28.1867L110.358 27.8605L110.696 27.5228L111.022 27.8489L110.684 28.1867ZM110.148 27.6625L109.81 27.3247L110.148 26.987L110.486 27.3247L110.148 27.6625ZM109.612 27.1267L109.275 26.7889L109.612 26.4512L109.95 26.7889L109.612 27.1267ZM109.077 26.5793L108.739 26.2415L109.077 25.9037L109.414 26.2415L109.077 26.5793ZM108.541 26.0435L108.191 25.6941L108.529 25.3563L108.879 25.7057L108.541 26.0435ZM107.982 25.496L107.644 25.1583L107.982 24.8205L108.32 25.1583L107.982 25.496ZM107.446 24.9486L107.108 24.6108L107.446 24.273L107.784 24.6108L107.446 24.9486ZM106.899 24.4128L106.561 24.075L106.899 23.7372L107.236 24.075L106.899 24.4128ZM106.363 23.877L106.025 23.5392L106.363 23.2014L106.701 23.5392L106.363 23.877ZM105.827 23.3296L105.489 22.9918L105.827 22.654L106.165 22.9918L105.827 23.3296ZM105.291 22.7938L104.953 22.456L105.291 22.1182L105.629 22.456L105.291 22.7938ZM104.744 22.258L104.406 21.9202L104.744 21.5824L105.081 21.9202L104.744 22.258ZM104.208 21.7222L103.858 21.3727L104.196 21.035L104.546 21.3844L104.208 21.7222ZM103.66 21.1631L103.323 20.8253L103.66 20.4875L103.998 20.8253L103.66 21.1631ZM103.125 20.6273L102.787 20.2895L103.125 19.9517L103.462 20.2895L103.125 20.6273ZM102.577 20.0915L102.239 19.7537L102.577 19.4159L102.915 19.7537L102.577 20.0915ZM102.041 19.5557L101.715 19.2296L102.053 18.8918L102.379 19.2179L102.041 19.5557ZM101.506 19.0199L101.168 18.6821L101.506 18.3443L101.843 18.6821L101.506 19.0199ZM100.97 18.4841L100.632 18.1463L100.97 17.8085L101.308 18.1463L100.97 18.4841ZM100.76 18.6821L100.434 19.0083L100.096 18.6705L100.422 18.3443L100.76 18.6821ZM100.236 19.2179L99.8982 19.5557L99.5605 19.2179L99.8982 18.8801L100.236 19.2179ZM99.6886 19.7537L99.3508 20.0915L99.013 19.7537L99.3508 19.4159L99.6886 19.7537ZM99.8982 19.9634L100.236 20.3012L99.8982 20.6389L99.5605 20.3012L99.8982 19.9634ZM100.434 20.4992L100.76 20.8253L100.422 21.1631L100.096 20.8369L100.434 20.4992ZM100.97 21.035L101.308 21.3727L100.97 21.7105L100.632 21.3727L100.97 21.035ZM101.506 21.5708L101.843 21.9085L101.506 22.2463L101.168 21.9085L101.506 21.5708ZM102.053 22.1066L102.391 22.4443L102.053 22.7821L101.715 22.4443L102.053 22.1066ZM102.589 22.654L102.938 23.0034L102.601 23.3412L102.251 22.9918L102.589 22.654ZM103.136 23.2014L103.474 23.5392L103.136 23.877L102.799 23.5392L103.136 23.2014ZM103.672 23.7372L104.01 24.075L103.672 24.4128L103.334 24.075L103.672 23.7372ZM104.22 24.2847L104.557 24.6225L104.22 24.9602L103.882 24.6225L104.22 24.2847ZM104.755 24.8205L105.093 25.1583L104.755 25.496L104.418 25.1583L104.755 24.8205ZM105.291 25.3563L105.629 25.6941L105.291 26.0318L104.953 25.6941L105.291 25.3563ZM105.839 25.8921L106.176 26.2299L105.839 26.5676L105.501 26.2299L105.839 25.8921ZM106.374 26.4395L106.712 26.7773L106.374 27.1151L106.037 26.7773L106.374 26.4395ZM106.91 26.9753L107.26 27.3247L106.922 27.6625L106.572 27.3131L106.91 26.9753ZM107.469 27.5228L107.807 27.8605L107.469 28.1983L107.131 27.8605L107.469 27.5228ZM108.005 28.0586L108.343 28.3963L108.005 28.7341L107.667 28.3963L108.005 28.0586ZM108.541 28.606L108.879 28.9438L108.541 29.2816L108.203 28.9438L108.541 28.606ZM109.077 29.1418L109.403 29.4679L109.065 29.8057L108.739 29.4796L109.077 29.1418ZM109.612 29.6776L109.95 30.0154L109.612 30.3532L109.275 30.0154L109.612 29.6776ZM110.148 30.2134L110.486 30.5512L110.148 30.889L109.81 30.5512L110.148 30.2134ZM110.358 30.0037L110.696 29.6659L111.033 30.0037L110.696 30.3415L110.358 30.0037ZM110.894 29.4679L111.22 29.1418L111.558 29.4796L111.231 29.8057L110.894 29.4679ZM111.43 28.9321L111.767 28.5943L112.105 28.9321L111.767 29.2699L111.43 28.9321ZM111.965 28.3963L112.303 28.0586L112.641 28.3963L112.303 28.7341L111.965 28.3963ZM111.756 28.1867L111.418 27.8489L111.756 27.5111L112.093 27.8489L111.756 28.1867ZM111.22 27.6509L110.894 27.3247L111.231 26.987L111.558 27.3131L111.22 27.6509ZM110.684 27.1267L110.346 26.7889L110.684 26.4512L111.022 26.7889L110.684 27.1267ZM110.148 26.5793L109.81 26.2415L110.148 25.9037L110.486 26.2415L110.148 26.5793ZM109.612 26.0435L109.275 25.7057L109.612 25.3679L109.95 25.7057L109.612 26.0435ZM109.077 25.5077L108.727 25.1583L109.065 24.8205L109.414 25.1699L109.077 25.5077ZM108.518 24.9486L108.18 24.6108L108.518 24.273L108.855 24.6108L108.518 24.9486ZM107.982 24.4128L107.644 24.075L107.982 23.7372L108.32 24.075L107.982 24.4128ZM107.446 23.877L107.108 23.5392L107.446 23.2014L107.784 23.5392L107.446 23.877ZM106.899 23.3412L106.561 23.0034L106.899 22.6656L107.236 23.0034L106.899 23.3412ZM106.363 22.7938L106.025 22.456L106.363 22.1182L106.701 22.456L106.363 22.7938ZM105.827 22.258L105.489 21.9202L105.827 21.5824L106.165 21.9202L105.827 22.258ZM105.291 21.7222L104.953 21.3844L105.291 21.0466L105.629 21.3844L105.291 21.7222ZM104.744 21.1864L104.394 20.8369L104.732 20.4992L105.081 20.8486L104.744 21.1864ZM104.196 20.6273L103.858 20.2895L104.196 19.9517L104.534 20.2895L104.196 20.6273ZM103.66 20.0915L103.323 19.7537L103.66 19.4159L103.998 19.7537L103.66 20.0915ZM103.113 19.5557L102.775 19.2179L103.113 18.8801L103.451 19.2179L103.113 19.5557ZM102.577 19.0083L102.251 18.6821L102.589 18.3443L102.915 18.6705L102.577 19.0083ZM102.041 18.4841L101.704 18.1463L102.041 17.8085L102.379 18.1463L102.041 18.4841ZM101.506 17.9367L101.168 17.5989L101.506 17.2611L101.843 17.5989L101.506 17.9367ZM100.97 17.4009L100.632 17.0631L100.97 16.7253L101.308 17.0631L100.97 17.4009ZM100.76 17.6105L100.422 17.9483L100.085 17.6105L100.422 17.2727L100.76 17.6105ZM100.224 18.1463L99.8982 18.4725L99.5605 18.1347L99.8866 17.8085L100.224 18.1463ZM99.6886 18.6821L99.3508 19.0199L99.013 18.6821L99.3508 18.3443L99.6886 18.6821ZM99.1528 19.2179L98.815 19.5557L98.4772 19.2179L98.815 18.8801L99.1528 19.2179ZM98.617 19.7537L98.2792 20.0915L97.9414 19.7537L98.2792 19.4159L98.617 19.7537ZM98.815 19.9634L99.1528 20.3012L98.815 20.6389L98.4772 20.3012L98.815 19.9634ZM99.3624 20.4992L99.7002 20.8369L99.3624 21.1747L99.0247 20.8369L99.3624 20.4992ZM99.8982 21.035L100.224 21.3611L99.8866 21.6989L99.5605 21.3727L99.8982 21.035ZM100.434 21.5708L100.772 21.9085L100.434 22.2463L100.096 21.9085L100.434 21.5708ZM100.97 22.1066L101.308 22.4443L100.97 22.7821L100.632 22.4443L100.97 22.1066ZM101.506 22.654L101.843 22.9918L101.506 23.3296L101.168 22.9918L101.506 22.654ZM102.041 23.1898L102.391 23.5392L102.053 23.877L101.704 23.5276L102.041 23.1898ZM102.601 23.7372L102.938 24.075L102.601 24.4128L102.263 24.075L102.601 23.7372ZM103.136 24.2847L103.474 24.6225L103.136 24.9602L102.799 24.6225L103.136 24.2847ZM103.672 24.8205L104.01 25.1583L103.672 25.496L103.334 25.1583L103.672 24.8205ZM104.22 25.3563L104.557 25.6941L104.22 26.0318L103.882 25.6941L104.22 25.3563ZM104.755 25.8921L105.093 26.2299L104.755 26.5676L104.418 26.2299L104.755 25.8921ZM105.291 26.4395L105.629 26.7773L105.291 27.1151L104.953 26.7773L105.291 26.4395ZM105.839 26.9753L106.176 27.3131L105.839 27.6509L105.501 27.3131L105.839 26.9753ZM106.374 27.5111L106.724 27.8605L106.386 28.1983L106.037 27.8489L106.374 27.5111ZM106.922 28.0702L107.26 28.408L106.922 28.7458L106.584 28.408L106.922 28.0702ZM107.458 28.606L107.795 28.9438L107.458 29.2816L107.12 28.9438L107.458 28.606ZM108.005 29.1418L108.343 29.4796L108.005 29.8174L107.667 29.4796L108.005 29.1418ZM108.541 29.6776L108.867 30.0037L108.529 30.3415L108.203 30.0154L108.541 29.6776ZM109.077 30.2134L109.414 30.5512L109.077 30.889L108.739 30.5512L109.077 30.2134ZM109.612 30.7492L109.95 31.087L109.612 31.4247L109.275 31.087L109.612 30.7492ZM110.148 31.2966L110.486 31.6344L110.148 31.9722L109.81 31.6344L110.148 31.2966ZM110.358 31.087L110.696 30.7492L111.033 31.087L110.696 31.4247L110.358 31.087ZM110.894 30.5512L111.231 30.2134L111.569 30.5512L111.231 30.889L110.894 30.5512ZM111.43 30.0037L111.756 29.6776L112.093 30.0154L111.767 30.3415L111.43 30.0037ZM111.965 29.4796L112.303 29.1418L112.641 29.4796L112.303 29.8174L111.965 29.4796ZM112.501 28.9321L112.839 28.5943L113.177 28.9321L112.839 29.2699L112.501 28.9321ZM113.049 28.3963L113.386 28.0586L113.724 28.3963L113.375 28.7341L113.049 28.3963ZM112.839 28.1867L112.501 27.8489L112.839 27.5111L113.177 27.8489L112.839 28.1867ZM112.303 27.6509L111.965 27.3131L112.303 26.9753L112.641 27.3131L112.303 27.6509ZM111.756 27.1151L111.43 26.7889L111.767 26.4512L112.093 26.7773L111.756 27.1151ZM111.231 26.5793L110.894 26.2415L111.231 25.9037L111.569 26.2415L111.231 26.5793ZM110.696 26.0435L110.358 25.7057L110.696 25.3679L111.033 25.7057L110.696 26.0435ZM110.148 25.5077L109.81 25.1699L110.148 24.8321L110.486 25.1699L110.148 25.5077ZM109.612 24.9602L109.263 24.6108L109.601 24.273L109.95 24.6225L109.612 24.9602ZM109.065 24.4128L108.727 24.075L109.065 23.7372L109.403 24.075L109.065 24.4128ZM108.518 23.877L108.18 23.5392L108.518 23.2014L108.855 23.5392L108.518 23.877ZM107.982 23.3296L107.644 22.9918L107.982 22.654L108.32 22.9918L107.982 23.3296ZM107.446 22.7938L107.108 22.456L107.446 22.1182L107.784 22.456L107.446 22.7938ZM106.899 22.258L106.561 21.9202L106.899 21.5824L107.236 21.9202L106.899 22.258ZM106.363 21.7222L106.025 21.3844L106.363 21.0466L106.701 21.3844L106.363 21.7222ZM105.827 21.1747L105.489 20.8369L105.827 20.4992L106.165 20.8369L105.827 21.1747ZM105.291 20.6389L104.942 20.2895L105.279 19.9517L105.629 20.3012L105.291 20.6389ZM104.732 20.0915L104.394 19.7537L104.732 19.4159L105.07 19.7537L104.732 20.0915ZM104.196 19.5557L103.858 19.2179L104.196 18.8801L104.534 19.2179L104.196 19.5557ZM103.66 19.0083L103.323 18.6705L103.66 18.3327L103.998 18.6705L103.66 19.0083ZM103.125 18.4725L102.799 18.1463L103.136 17.8085L103.462 18.1347L103.125 18.4725ZM102.589 17.9367L102.251 17.5989L102.589 17.2611L102.927 17.5989L102.589 17.9367ZM102.053 17.4009L101.715 17.0631L102.053 16.7253L102.391 17.0631L102.053 17.4009ZM101.506 16.8651L101.168 16.5273L101.506 16.1895L101.843 16.5273L101.506 16.8651ZM100.97 16.3293L100.62 15.9798L100.958 15.6421L101.308 15.9915L100.97 16.3293ZM100.76 16.5273L100.422 16.8651L100.073 16.5156L100.411 16.1778L100.76 16.5273ZM100.224 17.0747L99.8866 17.4125L99.5372 17.0631L99.8749 16.7253L100.224 17.0747ZM99.6886 17.6105L99.3624 17.9367L99.013 17.5872L99.3391 17.2611L99.6886 17.6105ZM99.1528 18.1347L98.815 18.4725L98.4656 18.123L98.8033 17.7852L99.1528 18.1347ZM98.617 18.6821L98.2792 19.0199L97.9298 18.6705L98.2675 18.3327L98.617 18.6821ZM98.0812 19.2179L97.7434 19.5557L97.394 19.2063L97.7318 18.8685L98.0812 19.2179ZM97.5337 19.7537L97.1843 20.1031L96.8349 19.7537L97.1843 19.4043L97.5337 19.7537ZM97.7434 19.9634L98.0812 20.3012L97.7318 20.6506L97.394 20.3128L97.7434 19.9634ZM98.2792 20.4992L98.617 20.8369L98.2675 21.1864L97.9298 20.8486L98.2792 20.4992ZM98.8266 21.035L99.1644 21.3727L98.815 21.7222L98.4772 21.3844L98.8266 21.035ZM99.3624 21.5824L99.6886 21.9085L99.3391 22.258L99.013 21.9318L99.3624 21.5824ZM99.8982 22.1066L100.236 22.4443L99.8866 22.7938L99.5488 22.456L99.8982 22.1066ZM100.434 22.6423L100.772 22.9801L100.422 23.3296L100.085 22.9918L100.434 22.6423ZM100.97 23.1898L101.308 23.5276L100.958 23.877L100.62 23.5392L100.97 23.1898ZM101.506 23.7256L101.855 24.075L101.506 24.4245L101.156 24.075L101.506 23.7256ZM102.065 24.2847L102.403 24.6225L102.053 24.9719L101.715 24.6341L102.065 24.2847ZM102.601 24.8205L102.938 25.1583L102.589 25.5077L102.251 25.1699L102.601 24.8205ZM103.136 25.3563L103.474 25.6941L103.125 26.0435L102.787 25.7057L103.136 25.3563ZM103.672 25.8921L104.01 26.2299L103.66 26.5793L103.323 26.2415L103.672 25.8921ZM104.22 26.4395L104.557 26.7773L104.208 27.1267L103.87 26.7889L104.22 26.4395ZM104.755 26.9753L105.093 27.3131L104.744 27.6625L104.406 27.3247L104.755 26.9753ZM105.291 27.5111L105.629 27.8489L105.279 28.1983L104.942 27.8605L105.291 27.5111ZM105.839 28.0469L106.188 28.3963L105.839 28.7458L105.489 28.3963L105.839 28.0469ZM106.386 28.606L106.724 28.9438L106.374 29.2932L106.037 28.9554L106.386 28.606ZM106.922 29.1418L107.26 29.4796L106.91 29.829L106.572 29.4912L106.922 29.1418ZM107.469 29.6776L107.807 30.0154L107.458 30.3648L107.12 30.027L107.469 29.6776ZM108.005 30.225L108.331 30.5512L107.982 30.9006L107.656 30.5745L108.005 30.225ZM108.541 30.7492L108.879 31.087L108.529 31.4364L108.191 31.0986L108.541 30.7492ZM109.077 31.285L109.414 31.6228L109.065 31.9722L108.727 31.6344L109.077 31.285ZM109.612 31.8324L109.95 32.1702L109.601 32.5196L109.263 32.1819L109.612 31.8324ZM110.148 32.3682L110.498 32.7176L110.148 33.0671L109.799 32.7176L110.148 32.3682ZM110.358 32.1586L110.696 31.8208L111.045 32.1702L110.707 32.508L110.358 32.1586ZM110.894 31.6228L111.231 31.285L111.581 31.6344L111.243 31.9722L110.894 31.6228ZM111.43 31.087L111.767 30.7492L112.117 31.0986L111.779 31.4364L111.43 31.087ZM111.977 30.5512L112.303 30.225L112.653 30.5745L112.326 30.9006L111.977 30.5512ZM112.501 30.0154L112.839 29.6776L113.188 30.027L112.851 30.3648L112.501 30.0154ZM113.049 29.4796L113.386 29.1418L113.736 29.4912L113.398 29.829L113.049 29.4796ZM113.584 28.9321L113.922 28.5943L114.272 28.9438L113.934 29.2816L113.584 28.9321ZM114.12 28.3963L114.47 28.0469L114.819 28.3963L114.47 28.7458L114.12 28.3963ZM113.91 28.1867L113.573 27.8489L113.922 27.4995L114.26 27.8372L113.91 28.1867ZM113.375 27.6509L113.037 27.3131L113.386 26.9637L113.724 27.3014L113.375 27.6509ZM112.839 27.1151L112.501 26.7773L112.851 26.4279L113.188 26.7657L112.839 27.1151ZM112.303 26.5793L111.977 26.2532L112.326 25.9037L112.653 26.2299L112.303 26.5793ZM111.767 26.0435L111.43 25.7057L111.779 25.3563L112.117 25.6941L111.767 26.0435ZM111.231 25.5077L110.894 25.1699L111.243 24.8205L111.581 25.1583L111.231 25.5077ZM110.684 24.9602L110.346 24.6225L110.696 24.273L111.033 24.6108L110.684 24.9602ZM110.148 24.4245L109.799 24.075L110.148 23.7256L110.498 24.075L110.148 24.4245ZM109.601 23.877L109.263 23.5392L109.612 23.1898L109.95 23.5276L109.601 23.877ZM109.065 23.3412L108.727 23.0034L109.077 22.654L109.414 22.9918L109.065 23.3412ZM108.518 22.7938L108.18 22.456L108.529 22.1066L108.867 22.4443L108.518 22.7938ZM107.982 22.258L107.644 21.9202L107.993 21.5708L108.331 21.9085L107.982 22.258ZM107.446 21.7222L107.108 21.3844L107.458 21.035L107.795 21.3727L107.446 21.7222ZM106.899 21.1864L106.561 20.8486L106.91 20.4992L107.248 20.8369L106.899 21.1864ZM106.363 20.6389L106.025 20.3012L106.374 19.9517L106.712 20.2895L106.363 20.6389ZM105.827 20.1031L105.478 19.7537L105.827 19.4043L106.176 19.7537L105.827 20.1031ZM105.268 19.5557L104.93 19.2179L105.279 18.8685L105.617 19.2063L105.268 19.5557ZM104.732 19.0083L104.394 18.6705L104.744 18.321L105.081 18.6588L104.732 19.0083ZM104.196 18.4725L103.858 18.1347L104.208 17.7852L104.546 18.123L104.196 18.4725ZM103.66 17.9367L103.334 17.6105L103.684 17.2611L104.01 17.5872L103.66 17.9367ZM103.125 17.4009L102.787 17.0631L103.136 16.7136L103.474 17.0514L103.125 17.4009ZM102.589 16.8651L102.251 16.5273L102.601 16.1778L102.938 16.5156L102.589 16.8651ZM102.041 16.3293L101.704 15.9915L102.053 15.6421L102.391 15.9798L102.041 16.3293ZM101.506 15.7818L101.156 15.4324L101.506 15.083L101.855 15.4324L101.506 15.7818ZM100.958 15.2344L100.62 14.8966L100.97 14.5472L101.308 14.8849L100.958 15.2344ZM100.749 15.444L100.411 15.7818L100.073 15.444L100.411 15.1063L100.749 15.444ZM100.213 15.9798L99.8749 16.3176L99.5372 15.9798L99.8749 15.6421L100.213 15.9798ZM99.6769 16.5156L99.3391 16.8534L99.0014 16.5156L99.3391 16.1778L99.6769 16.5156ZM99.1295 17.0514L98.8033 17.3776L98.4656 17.0398L98.7917 16.7136L99.1295 17.0514ZM98.6053 17.5872L98.2675 17.925L97.9298 17.5872L98.2675 17.2494L98.6053 17.5872ZM98.0579 18.123L97.7201 18.4608L97.3823 18.123L97.7201 17.7852L98.0579 18.123ZM97.5221 18.6588L97.1843 18.9966L96.8465 18.6588L97.1843 18.321L97.5221 18.6588ZM96.9863 19.2063L96.6369 19.5557L96.2991 19.2179L96.6485 18.8685L96.9863 19.2063ZM96.4272 19.7537L96.0894 20.0915L95.7516 19.7537L96.0894 19.4159L96.4272 19.7537ZM96.6369 19.9634L96.9863 20.3128L96.6485 20.6506L96.2991 20.3012L96.6369 19.9634ZM97.196 20.5108L97.5337 20.8486L97.196 21.1864L96.8582 20.8486L97.196 20.5108ZM97.7318 21.0583L98.0695 21.396L97.7318 21.7338L97.394 21.396L97.7318 21.0583ZM98.2675 21.5941L98.6053 21.9318L98.2675 22.2696L97.9298 21.9318L98.2675 21.5941ZM98.8033 22.1298L99.1295 22.456L98.7917 22.7938L98.4656 22.4676L98.8033 22.1298ZM99.3391 22.6656L99.6769 23.0034L99.3391 23.3412L99.0014 23.0034L99.3391 22.6656ZM99.8749 23.2014L100.213 23.5392L99.8749 23.877L99.5372 23.5392L99.8749 23.2014ZM100.422 23.7372L100.76 24.075L100.422 24.4128L100.085 24.075L100.422 23.7372ZM100.958 24.2847L101.308 24.6341L100.97 24.9719L100.62 24.6225L100.958 24.2847ZM101.506 24.8321L101.843 25.1699L101.506 25.5077L101.168 25.1699L101.506 24.8321ZM102.041 25.3679L102.379 25.7057L102.041 26.0435L101.704 25.7057L102.041 25.3679ZM102.589 25.9154L102.927 26.2532L102.589 26.5909L102.251 26.2532L102.589 25.9154ZM103.125 26.4512L103.462 26.7889L103.125 27.1267L102.787 26.7889L103.125 26.4512ZM103.66 26.987L103.998 27.3247L103.66 27.6625L103.323 27.3247L103.66 26.987ZM104.208 27.5228L104.546 27.8605L104.208 28.1983L103.87 27.8605L104.208 27.5228ZM104.744 28.0702L105.081 28.408L104.744 28.7458L104.406 28.408L104.744 28.0702ZM105.279 28.606L105.629 28.9554L105.291 29.2932L104.942 28.9438L105.279 28.606ZM105.839 29.1534L106.176 29.4912L105.839 29.829L105.501 29.4912L105.839 29.1534ZM106.374 29.7009L106.712 30.0387L106.374 30.3765L106.037 30.0387L106.374 29.7009ZM106.91 30.2367L107.248 30.5745L106.91 30.9122L106.572 30.5745L106.91 30.2367ZM107.446 30.7725L107.772 31.0986L107.434 31.4364L107.108 31.1103L107.446 30.7725ZM107.982 31.3083L108.32 31.6461L107.982 31.9838L107.644 31.6461L107.982 31.3083ZM108.518 31.8441L108.855 32.1819L108.518 32.5196L108.18 32.1819L108.518 31.8441ZM109.065 32.3799L109.403 32.7176L109.065 33.0438L108.727 32.706L109.065 32.3799ZM109.601 32.9157L109.95 33.2651L109.612 33.6029L109.263 33.2534L109.601 32.9157ZM110.148 33.4748L110.486 33.8125L110.148 34.1503L109.81 33.8125L110.148 33.4748ZM110.358 33.2651L110.707 32.9157L111.045 33.2534L110.696 33.6029L110.358 33.2651ZM110.905 32.7176L111.243 32.3799L111.581 32.7176L111.243 33.0554L110.905 32.7176ZM111.453 32.1819L111.791 31.8441L112.128 32.1819L111.791 32.5196L111.453 32.1819ZM111.989 31.6344L112.326 31.2966L112.664 31.6344L112.326 31.9722L111.989 31.6344ZM112.524 31.0986L112.851 30.7725L113.188 31.1103L112.862 31.4364L112.524 31.0986ZM113.06 30.5628L113.398 30.225L113.736 30.5628L113.398 30.9006L113.06 30.5628ZM113.596 30.027L113.934 29.6892L114.272 30.027L113.934 30.3648L113.596 30.027ZM114.132 29.4912L114.47 29.1534L114.807 29.4912L114.47 29.829L114.132 29.4912ZM114.679 28.9554L115.029 28.606L115.366 28.9438L115.017 29.2932L114.679 28.9554ZM115.227 28.3963L115.564 28.0586L115.902 28.3963L115.564 28.7341L115.227 28.3963ZM115.017 28.1867L114.668 27.8372L115.005 27.4995L115.355 27.8489L115.017 28.1867ZM114.47 27.6392L114.132 27.3014L114.47 26.9637L114.807 27.3014L114.47 27.6392ZM113.934 27.1034L113.596 26.7657L113.934 26.4279L114.272 26.7657L113.934 27.1034ZM113.386 26.556L113.049 26.2182L113.386 25.8804L113.724 26.2182L113.386 26.556ZM112.851 26.0202L112.524 25.6941L112.862 25.3563L113.188 25.6824L112.851 26.0202ZM112.315 25.496L111.977 25.1583L112.315 24.8205L112.653 25.1583L112.315 25.496ZM111.779 24.9486L111.441 24.6108L111.779 24.273L112.117 24.6108L111.779 24.9486ZM111.243 24.4128L110.905 24.075L111.243 23.7372L111.581 24.075L111.243 24.4128ZM110.707 23.877L110.358 23.5276L110.696 23.1898L111.045 23.5392L110.707 23.877ZM110.148 23.3179L109.81 22.9801L110.148 22.6423L110.486 22.9801L110.148 23.3179ZM109.612 22.7821L109.275 22.4443L109.612 22.1066L109.95 22.4443L109.612 22.7821ZM109.077 22.2463L108.739 21.9085L109.077 21.5708L109.414 21.9085L109.077 22.2463ZM108.541 21.7105L108.203 21.3727L108.541 21.035L108.879 21.3727L108.541 21.7105ZM107.993 21.1631L107.656 20.8253L107.993 20.4875L108.331 20.8253L107.993 21.1631ZM107.458 20.6273L107.12 20.2895L107.458 19.9517L107.795 20.2895L107.458 20.6273ZM106.922 20.0915L106.584 19.7537L106.922 19.4159L107.26 19.7537L106.922 20.0915ZM106.374 19.5557L106.025 19.2063L106.363 18.8685L106.712 19.2179L106.374 19.5557ZM105.827 18.9966L105.489 18.6588L105.827 18.321L106.165 18.6588L105.827 18.9966ZM105.291 18.4608L104.953 18.123L105.291 17.7852L105.629 18.123L105.291 18.4608ZM104.744 17.9134L104.406 17.5756L104.744 17.2378L105.081 17.5756L104.744 17.9134ZM104.208 17.3776L103.882 17.0514L104.22 16.7136L104.546 17.0398L104.208 17.3776ZM103.672 16.8534L103.334 16.5156L103.672 16.1778L104.01 16.5156L103.672 16.8534ZM103.136 16.306L102.799 15.9682L103.136 15.6304L103.474 15.9682L103.136 16.306ZM102.601 15.7702L102.263 15.4324L102.601 15.0946L102.938 15.4324L102.601 15.7702ZM102.065 15.2344L101.715 14.8849L102.053 14.5472L102.403 14.8966L102.065 15.2344ZM101.506 14.6753L101.168 14.3375L101.506 13.9997L101.843 14.3375L101.506 14.6753ZM100.97 14.1395L100.632 13.8017L100.97 13.4639L101.308 13.8017L100.97 14.1395ZM100.76 14.3492L100.411 14.6986L100.073 14.3608L100.422 14.0114L100.76 14.3492ZM100.213 14.8966L99.8749 15.2344L99.5372 14.8966L99.8749 14.5588L100.213 14.8966ZM99.6769 15.444L99.3391 15.7818L99.0014 15.444L99.3391 15.1063L99.6769 15.444ZM99.1295 15.9798L98.7917 16.3176L98.4539 15.9798L98.7917 15.6421L99.1295 15.9798ZM98.5937 16.5156L98.2675 16.8418L97.9298 16.504L98.2559 16.1778L98.5937 16.5156ZM98.0579 17.0514L97.7201 17.3892L97.3823 17.0514L97.7201 16.7136L98.0579 17.0514ZM97.5221 17.5872L97.1843 17.925L96.8465 17.5872L97.1843 17.2494L97.5221 17.5872ZM96.9863 18.123L96.6485 18.4608L96.3107 18.123L96.6485 17.7852L96.9863 18.123ZM96.4505 18.6588L96.1011 19.0083L95.7633 18.6705L96.1127 18.321L96.4505 18.6588ZM95.8914 19.2179L95.5536 19.5557L95.2158 19.2179L95.5536 18.8801L95.8914 19.2179ZM95.3556 19.7537L95.0178 20.0915L94.68 19.7537L95.0178 19.4159L95.3556 19.7537ZM95.5653 19.9634L95.9031 20.3012L95.5653 20.6389L95.2275 20.3012L95.5653 19.9634ZM96.1011 20.4992L96.4505 20.8486L96.1127 21.1864L95.7633 20.8369L96.1011 20.4992ZM96.6485 21.0583L96.9863 21.396L96.6485 21.7338L96.3107 21.396L96.6485 21.0583ZM97.196 21.5941L97.5337 21.9318L97.196 22.2696L96.8582 21.9318L97.196 21.5941ZM97.7318 22.1298L98.0695 22.4676L97.7318 22.8054L97.394 22.4676L97.7318 22.1298ZM98.2675 22.6656L98.5937 22.9918L98.2559 23.3296L97.9298 23.0034L98.2675 22.6656ZM98.8033 23.2014L99.1411 23.5392L98.8033 23.877L98.4656 23.5392L98.8033 23.2014ZM99.3391 23.7372L99.6769 24.075L99.3391 24.4128L99.0014 24.075L99.3391 23.7372ZM99.8749 24.2847L100.213 24.6225L99.8749 24.9602L99.5372 24.6225L99.8749 24.2847ZM100.422 24.8205L100.772 25.1699L100.434 25.5077L100.085 25.1583L100.422 24.8205ZM100.97 25.3679L101.308 25.7057L100.97 26.0435L100.632 25.7057L100.97 25.3679ZM101.506 25.9037L101.843 26.2415L101.506 26.5793L101.168 26.2415L101.506 25.9037ZM102.053 26.4512L102.391 26.7889L102.053 27.1267L101.715 26.7889L102.053 26.4512ZM102.589 26.987L102.927 27.3247L102.589 27.6625L102.251 27.3247L102.589 26.987ZM103.125 27.5228L103.462 27.8605L103.125 28.1983L102.787 27.8605L103.125 27.5228ZM103.66 28.0586L103.998 28.3963L103.66 28.7341L103.323 28.3963L103.66 28.0586ZM104.208 28.606L104.546 28.9438L104.208 29.2816L103.87 28.9438L104.208 28.606ZM104.744 29.1418L105.093 29.4912L104.755 29.829L104.406 29.4796L104.744 29.1418ZM105.291 29.7009L105.629 30.0387L105.291 30.3765L104.953 30.0387L105.291 29.7009ZM105.839 30.2367L106.176 30.5745L105.839 30.9122L105.501 30.5745L105.839 30.2367ZM106.374 30.7725L106.712 31.1103L106.374 31.448L106.037 31.1103L106.374 30.7725ZM106.91 31.3083L107.236 31.6344L106.899 31.9722L106.572 31.6461L106.91 31.3083ZM107.446 31.8441L107.784 32.1819L107.446 32.5196L107.108 32.1819L107.446 31.8441ZM107.982 32.3799L108.32 32.7176L107.982 33.0554L107.644 32.7176L107.982 32.3799ZM108.518 32.9157L108.855 33.2534L108.518 33.5912L108.18 33.2534L108.518 32.9157ZM109.065 33.4631L109.414 33.8125L109.077 34.1503L108.727 33.8009L109.065 33.4631ZM109.612 34.0105L109.95 34.3483L109.612 34.6861L109.275 34.3483L109.612 34.0105ZM110.148 34.5463L110.486 34.8841L110.148 35.2219L109.81 34.8841L110.148 34.5463ZM110.358 34.3483L110.696 34.0105L111.033 34.3483L110.696 34.6745L110.358 34.3483ZM110.894 33.8125L111.243 33.4631L111.581 33.8009L111.231 34.1503L110.894 33.8125ZM111.453 33.2534L111.791 32.9157L112.128 33.2534L111.791 33.5912L111.453 33.2534ZM111.989 32.7176L112.326 32.3799L112.664 32.7176L112.326 33.0554L111.989 32.7176ZM112.524 32.1702L112.862 31.8324L113.2 32.1702L112.862 32.508L112.524 32.1702ZM113.06 31.6344L113.386 31.3083L113.724 31.6461L113.398 31.9722L113.06 31.6344ZM113.596 31.1103L113.934 30.7725L114.272 31.1103L113.934 31.448L113.596 31.1103ZM114.132 30.5628L114.47 30.225L114.807 30.5628L114.47 30.9006L114.132 30.5628ZM114.679 30.027L115.017 29.6892L115.355 30.027L115.005 30.3648L114.679 30.027ZM115.215 29.4912L115.564 29.1418L115.902 29.4796L115.553 29.829L115.215 29.4912ZM115.762 28.9321L116.1 28.5943L116.438 28.9321L116.1 29.2699L115.762 28.9321ZM116.426 27.8605L116.089 28.1983L115.751 27.8605L116.089 27.5228L116.426 27.8605ZM115.891 27.3247L115.553 27.6625L115.203 27.3131L115.541 26.9753L115.891 27.3247ZM115.343 26.7657L115.005 27.1034L114.668 26.7657L115.005 26.4279L115.343 26.7657ZM114.807 26.2299L114.47 26.5676L114.132 26.2299L114.47 25.8921L114.807 26.2299ZM114.26 25.6941L113.922 26.0318L113.584 25.6941L113.922 25.3563L114.26 25.6941ZM113.724 25.1466L113.386 25.4844L113.06 25.1583L113.398 24.8205L113.724 25.1466ZM113.188 24.6225L112.851 24.9602L112.513 24.6225L112.851 24.2847L113.188 24.6225ZM112.653 24.075L112.315 24.4128L111.977 24.075L112.315 23.7372L112.653 24.075ZM112.117 23.5392L111.779 23.877L111.441 23.5392L111.779 23.2014L112.117 23.5392ZM111.581 23.0034L111.243 23.3412L110.894 22.9918L111.231 22.654L111.581 23.0034ZM111.022 22.4443L110.684 22.7821L110.346 22.4443L110.684 22.1066L111.022 22.4443ZM110.486 21.9085L110.148 22.2463L109.81 21.9085L110.148 21.5708L110.486 21.9085ZM109.95 21.3727L109.612 21.7105L109.275 21.3727L109.612 21.035L109.95 21.3727ZM109.403 20.8369L109.065 21.1747L108.727 20.8369L109.065 20.4992L109.403 20.8369ZM108.867 20.2895L108.529 20.6273L108.191 20.2895L108.529 19.9517L108.867 20.2895ZM108.331 19.7537L107.993 20.0915L107.656 19.7537L107.993 19.4159L108.331 19.7537ZM107.784 19.2179L107.446 19.5557L107.108 19.2179L107.446 18.8801L107.784 19.2179ZM107.248 18.6821L106.91 19.0199L106.561 18.6705L106.899 18.3327L107.248 18.6821ZM106.701 18.123L106.363 18.4608L106.025 18.123L106.363 17.7852L106.701 18.123ZM106.165 17.5872L105.827 17.925L105.489 17.5872L105.827 17.2494L106.165 17.5872ZM105.617 17.0514L105.279 17.3892L104.942 17.0514L105.279 16.7136L105.617 17.0514ZM105.081 16.504L104.744 16.8418L104.418 16.5156L104.755 16.1778L105.081 16.504ZM104.546 15.9798L104.208 16.3176L103.87 15.9798L104.208 15.6421L104.546 15.9798ZM104.01 15.444L103.672 15.7818L103.334 15.444L103.672 15.1063L104.01 15.444ZM103.474 14.8966L103.136 15.2344L102.799 14.8966L103.136 14.5588L103.474 14.8966ZM102.938 14.3608L102.601 14.6986L102.251 14.3492L102.589 14.0114L102.938 14.3608ZM102.379 13.8017L102.041 14.1395L101.704 13.8017L102.041 13.4639L102.379 13.8017ZM101.843 13.2659L101.506 13.6037L101.168 13.2659L101.506 12.9281L101.843 13.2659ZM100.97 12.3923L101.308 12.7301L100.97 13.0679L100.632 12.7301L100.97 12.3923ZM100.434 12.9398L100.772 13.2776L100.434 13.6153L100.096 13.2776L100.434 12.9398ZM99.8982 13.4756L100.236 13.8134L99.8866 14.1628L99.5488 13.825L99.8982 13.4756ZM99.3391 14.023L99.6769 14.3608L99.3391 14.6986L99.0014 14.3608L99.3391 14.023ZM98.8033 14.5705L99.1411 14.9082L98.8033 15.246L98.4656 14.9082L98.8033 14.5705ZM98.2675 15.1063L98.6053 15.444L98.2675 15.7818L97.9298 15.444L98.2675 15.1063ZM97.7201 15.6421L98.0579 15.9798L97.7318 16.306L97.394 15.9682L97.7201 15.6421ZM97.196 16.1778L97.5337 16.5156L97.196 16.8534L96.8582 16.5156L97.196 16.1778ZM96.6485 16.7136L96.9863 17.0514L96.6485 17.3892L96.3107 17.0514L96.6485 16.7136ZM96.1127 17.2494L96.4505 17.5872L96.1127 17.925L95.7749 17.5872L96.1127 17.2494ZM95.5769 17.7969L95.9147 18.1347L95.5653 18.4841L95.2275 18.1463L95.5769 17.7969ZM95.0178 18.3443L95.3556 18.6821L95.0178 19.0199L94.68 18.6821L95.0178 18.3443ZM94.482 18.8801L94.8198 19.2179L94.482 19.5557L94.1442 19.2179L94.482 18.8801ZM93.6085 19.7537L93.9462 19.4159L94.284 19.7537L93.9462 20.0915L93.6085 19.7537ZM94.1559 20.2895L94.4937 19.9517L94.8315 20.2895L94.4937 20.6273L94.1559 20.2895ZM94.6917 20.8369L95.0295 20.4992L95.3673 20.8369L95.0295 21.1747L94.6917 20.8369ZM95.2275 21.3727L95.5653 21.035L95.9147 21.3844L95.5769 21.7222L95.2275 21.3727ZM95.7866 21.9202L96.1244 21.5824L96.4621 21.9202L96.1244 22.258L95.7866 21.9202ZM96.3224 22.4676L96.6602 22.1298L96.9979 22.4676L96.6602 22.8054L96.3224 22.4676ZM96.8582 23.0034L97.196 22.6656L97.5337 23.0034L97.196 23.3412L96.8582 23.0034ZM97.394 23.5392L97.7318 23.2014L98.0579 23.5276L97.7201 23.8654L97.394 23.5392ZM97.9298 24.075L98.2675 23.7372L98.6053 24.075L98.2675 24.4128L97.9298 24.075ZM98.4656 24.6108L98.8033 24.273L99.1411 24.6108L98.8033 24.9486L98.4656 24.6108ZM99.013 25.1466L99.3508 24.8088L99.6886 25.1466L99.3508 25.4844L99.013 25.1466ZM99.5488 25.6941L99.8866 25.3563L100.236 25.7057L99.8982 26.0435L99.5488 25.6941ZM100.096 26.2415L100.434 25.9037L100.772 26.2415L100.434 26.5793L100.096 26.2415ZM100.632 26.7773L100.97 26.4395L101.308 26.7773L100.97 27.1151L100.632 26.7773ZM101.179 27.3247L101.517 26.987L101.855 27.3247L101.517 27.6625L101.179 27.3247ZM101.715 27.8605L102.053 27.5228L102.391 27.8605L102.053 28.1983L101.715 27.8605ZM102.251 28.3963L102.589 28.0586L102.927 28.3963L102.589 28.7341L102.251 28.3963ZM102.787 28.9321L103.125 28.5943L103.462 28.9321L103.125 29.2699L102.787 28.9321ZM103.334 29.4796L103.672 29.1418L104.01 29.4796L103.672 29.8174L103.334 29.4796ZM103.87 30.0154L104.208 29.6776L104.557 30.027L104.22 30.3648L103.87 30.0154ZM104.429 30.5628L104.767 30.225L105.105 30.5628L104.767 30.9006L104.429 30.5628ZM104.965 31.1103L105.303 30.7725L105.641 31.1103L105.303 31.448L104.965 31.1103ZM105.501 31.6461L105.839 31.3083L106.176 31.6461L105.839 31.9838L105.501 31.6461ZM106.037 32.1819L106.374 31.8441L106.701 32.1702L106.363 32.508L106.037 32.1819ZM106.572 32.7176L106.91 32.3799L107.248 32.7176L106.91 33.0554L106.572 32.7176ZM107.108 33.2534L107.446 32.9157L107.784 33.2534L107.446 33.5912L107.108 33.2534ZM107.644 33.7892L107.982 33.4515L108.32 33.7892L107.982 34.127L107.644 33.7892ZM108.191 34.3367L108.529 33.9989L108.879 34.3483L108.541 34.6861L108.191 34.3367ZM108.739 34.8841L109.077 34.5463L109.414 34.8841L109.077 35.2219L108.739 34.8841ZM109.275 35.4199L109.612 35.0821L109.95 35.4199L109.612 35.7577L109.275 35.4199ZM110.148 36.2935L109.81 35.9557L110.148 35.6179L110.486 35.9557L110.148 36.2935ZM110.684 35.7577L110.346 35.4199L110.684 35.0821L111.022 35.4199L110.684 35.7577ZM111.231 35.2219L110.894 34.8841L111.231 34.5463L111.569 34.8841L111.231 35.2219ZM111.767 34.6745L111.43 34.3367L111.779 33.9873L112.117 34.325L111.767 34.6745ZM112.315 34.127L111.977 33.7892L112.315 33.4515L112.653 33.7892L112.315 34.127ZM112.862 33.5912L112.524 33.2534L112.862 32.9157L113.2 33.2534L112.862 33.5912ZM113.398 33.0438L113.06 32.706L113.398 32.3682L113.736 32.706L113.398 33.0438ZM113.934 32.508L113.596 32.1702L113.922 31.8441L114.26 32.1819L113.934 32.508ZM114.47 31.9722L114.132 31.6344L114.47 31.2966L114.807 31.6344L114.47 31.9722ZM115.005 31.4364L114.668 31.0986L115.005 30.7608L115.343 31.0986L115.005 31.4364ZM115.541 30.9006L115.203 30.5628L115.541 30.225L115.879 30.5628L115.541 30.9006ZM116.089 30.3648L115.751 30.027L116.1 29.6776L116.438 30.0154L116.089 30.3648ZM116.636 29.8057L116.298 29.4679L116.636 29.1301L116.974 29.4679L116.636 29.8057ZM117.172 29.2699L116.834 28.9321L117.172 28.5943L117.51 28.9321L117.172 29.2699Z" fill="url(#paint0_linear_2728_2275)"/>
</g>
<path d="M119.991 28.2687C119.956 27.4767 119.583 25.6829 117.964 24.0173C117.51 23.5397 116.823 22.9574 116.252 22.5264C115.087 21.6528 114.295 21.0821 112.956 20.3133C112.141 19.8474 111.325 19.4281 110.51 18.9738C109.753 18.5662 108.926 18.0187 108.448 17.7159C107.12 16.8889 106.328 15.9454 106.002 15.561C105.641 15.1301 105.222 14.6292 104.942 14.1983C103.358 11.7289 103.719 10.0633 103.719 10.0633C104.139 6.19625 113.946 0.290845 113.946 0.290845C114.167 0.16272 114.202 0.104481 114.191 0.069538C114.179 0.0462425 114.121 0.0695378 114.051 0.0811855C113.958 0.104481 113.864 0.139424 113.783 0.186015C112.874 0.616982 106.049 4.01812 105.257 4.92665C102.752 7.7687 102.916 10.8088 102.962 12.719C102.997 13.9886 103.323 15.0835 103.789 15.9804C104.208 16.7841 105.152 17.9372 106.363 18.9622C107.342 19.8008 108.18 20.4531 108.996 21.0238C110.195 21.8741 111.081 22.4682 112.001 23.0389C112.828 23.563 114.319 24.5065 115.076 25.1238C115.355 25.3451 116.112 26.0324 116.357 26.242C118.419 28.1173 118.826 29.2588 118.966 29.8528C118.989 29.9344 118.966 30.0159 118.908 30.0858C118.535 30.54 116.893 32.392 114.948 32.4852C114.948 32.4852 109.904 33.0909 104.418 26.4866C104.383 26.44 104.278 26.6148 104.278 26.6148C101.448 32.0892 104.43 37.2841 104.43 37.2841C105.909 39.8349 107.47 40.5804 107.47 40.5804C107.47 40.5804 108.285 41.0114 108.716 40.9881C110.3 40.9182 111.349 39.5438 111.453 39.404C111.453 39.3923 111.465 39.3923 111.465 39.3807C112.176 38.6119 112.839 36.8531 113.037 36.294C113.072 36.1892 113.166 36.1193 113.282 36.1193C114.948 36.0611 116.998 35.4437 118.617 32.9045C119.723 31.1807 120.061 29.5849 119.991 28.2687ZM111.779 35.9213C111.756 35.9562 111.733 36.0145 111.698 36.0727C111.651 36.1543 111.64 36.1776 111.616 36.2241C111.593 36.2707 111.558 36.329 111.488 36.4338C111.302 36.7017 111.36 36.7017 110.906 36.4338C110.708 36.3173 110.708 36.3173 110.545 36.4687C110.405 36.5969 110.254 36.6901 110.091 36.7949C110.044 36.8298 110.009 36.8415 110.032 36.9347C110.067 37.121 110.079 37.1094 110.102 37.1909C110.172 37.4472 110.254 37.5287 109.951 37.6102C109.648 37.6801 109.147 37.8082 108.833 37.8781C108.623 37.9247 108.448 38.0295 108.402 37.8082C108.378 37.7267 108.308 37.4355 108.285 37.3307C108.274 37.2841 108.239 37.2724 108.204 37.2724C107.947 37.2608 107.691 37.2258 107.435 37.156C107.412 37.1443 107.388 37.156 107.365 37.1909C107.307 37.2841 107.249 37.3656 107.167 37.4821C107.004 37.7034 107.016 37.7383 106.829 37.6452C106.748 37.5986 106.724 37.5869 106.666 37.552C106.387 37.3889 106.142 37.2142 105.874 37.0511C105.443 36.7483 105.443 36.8415 105.676 36.5037C105.711 36.4455 105.851 36.2824 105.839 36.2241C105.827 36.1659 105.746 36.1193 105.699 36.0611C105.583 35.9097 105.466 35.7582 105.373 35.5952C105.35 35.5486 105.327 35.5136 105.257 35.5369C105.175 35.5602 105.094 35.5835 105.001 35.5952C104.57 35.6883 104.628 35.7233 104.523 35.2457C104.453 34.9429 104.372 34.6517 104.302 34.3489C104.208 33.9062 104.185 33.9761 104.616 33.848C104.674 33.8364 104.686 33.8247 104.744 33.8131C104.931 33.7432 104.896 33.7781 104.907 33.615C104.919 33.3937 104.954 33.1724 105.024 32.9511C105.035 32.9162 105.024 32.8929 104.989 32.8812C104.907 32.8347 104.872 32.8114 104.791 32.7531C104.36 32.4619 104.395 32.5668 104.628 32.194C104.698 32.0775 104.721 32.0426 104.733 32.0193C104.744 32.0077 104.744 32.0077 104.744 31.996C104.779 31.9494 104.802 31.9028 104.826 31.8679C104.837 31.8446 104.849 31.8213 104.849 31.8213C104.849 31.8213 104.931 31.9145 105.129 32.1008C105.513 32.4619 105.897 32.7764 106.258 33.0676C106.852 33.5335 107.47 33.9761 107.936 34.279C108.472 34.6284 108.868 34.8497 109.24 35.0477C109.427 35.1526 109.753 35.3156 110.114 35.4787C110.23 35.5369 110.335 35.5835 110.44 35.6185C110.452 35.6185 110.452 35.6185 110.463 35.6301C110.918 35.7582 111.349 35.8631 111.756 35.9329C111.756 35.9097 111.768 35.9097 111.779 35.9213Z" fill="#193556"/>
<path d="M114.284 30.2834C115.612 31.1104 116.404 32.0539 116.73 32.4382C117.091 32.8692 117.51 33.3701 117.79 33.801C119.374 36.2704 119.013 37.936 119.013 37.936C118.594 41.803 108.786 47.7084 108.786 47.7084C108.565 47.8366 108.53 47.8948 108.542 47.9298C108.553 47.953 108.611 47.9298 108.681 47.9181C108.774 47.8948 108.868 47.8599 108.949 47.8133C109.858 47.3823 116.683 43.9812 117.475 43.0726C119.98 40.2306 119.817 37.1905 119.77 35.2803C119.735 34.0107 119.409 32.9158 118.943 32.0189C118.524 31.2152 117.58 30.0621 116.369 29.0371" fill="#6D8640"/>
<defs>
<linearGradient id="paint0_linear_2728_2275" x1="100.282" y1="17.5946" x2="110.397" y2="29.8071" gradientUnits="userSpaceOnUse">
<stop stop-color="#2B582B"/>
<stop offset="0.4791" stop-color="#3D6933"/>
<stop offset="0.9606" stop-color="#6D8640"/>
</linearGradient>
</defs>
</svg>
